<svg width="676" height="163" viewBox="0 0 676 163" fill="none" xmlns="http://www.w3.org/2000/svg">
<path d="M0 158.9L0.72 156.5L4.56 154.82C7.76 153.38 10.24 151.62 12 149.54C13.76 147.46 14.96 144.66 15.6 141.14L28.08 74.9C29.68 66.42 31.36 57.14 33.12 47.06C34.88 36.98 36.56 27.3 38.16 18.02C39.12 11.78 36.88 7.3 31.44 4.58L28.32 2.9L28.8 0.5H82.8C99.44 0.5 113.36 3.38 124.56 9.14C135.76 14.9 144.16 22.82 149.76 32.9C155.36 42.98 158.16 54.42 158.16 67.22C158.16 81.62 155.6 94.5 150.48 105.86C145.36 117.22 138.32 126.82 129.36 134.66C120.56 142.5 110.32 148.5 98.64 152.66C87.12 156.82 74.8 158.9 61.68 158.9H0ZM46.32 154.1H58.56C72.32 154.1 84 150.26 93.6 142.58C103.2 134.9 110.56 124.34 115.68 110.9C120.96 97.46 123.6 82.18 123.6 65.06C123.6 45.22 119.92 30.5 112.56 20.9C105.2 11.14 94.4 5.94 80.16 5.3H73.68L58.56 84.26C56.48 95.94 54.32 107.62 52.08 119.3C50 130.98 48.08 142.58 46.32 154.1Z" fill="white"/>
<path d="M215.301 162.5C206.981 162.5 199.381 160.9 192.501 157.7C185.621 154.34 180.181 149.38 176.181 142.82C172.181 136.1 170.181 127.62 170.181 117.38C170.181 107.14 171.861 97.38 175.221 88.1C178.741 78.82 183.621 70.58 189.861 63.38C196.101 56.02 203.381 50.26 211.701 46.1C220.021 41.94 229.061 39.86 238.821 39.86C247.301 39.86 254.821 41.54 261.381 44.9C268.101 48.1 273.381 52.98 277.221 59.54C281.221 66.1 283.221 74.5 283.221 84.74C283.221 94.82 281.461 104.58 277.941 114.02C274.581 123.3 269.781 131.62 263.541 138.98C257.461 146.18 250.261 151.94 241.941 156.26C233.781 160.42 224.901 162.5 215.301 162.5ZM218.181 157.7C223.141 157.7 227.621 155.46 231.621 150.98C235.781 146.34 239.381 140.26 242.421 132.74C245.461 125.06 247.781 116.66 249.381 107.54C250.981 98.26 251.781 89.06 251.781 79.94C251.781 66.66 250.421 57.46 247.701 52.34C244.981 47.22 241.461 44.66 237.141 44.66C232.021 44.66 227.301 46.9 222.981 51.38C218.661 55.86 214.901 61.86 211.701 69.38C208.501 76.9 206.021 85.22 204.261 94.34C202.501 103.46 201.621 112.58 201.621 121.7C201.621 135.3 203.221 144.74 206.421 150.02C209.621 155.14 213.541 157.7 218.181 157.7Z" fill="white"/>
<path d="M336.846 162.5C325.006 162.5 315.326 158.5 307.806 150.5C300.286 142.5 296.526 131.3 296.526 116.9C296.526 106.66 298.286 96.98 301.806 87.86C305.326 78.58 310.206 70.34 316.446 63.14C322.846 55.94 330.126 50.26 338.286 46.1C346.606 41.94 355.486 39.86 364.926 39.86C370.526 39.86 375.726 40.74 380.526 42.5C385.486 44.26 389.406 46.74 392.286 49.94C395.326 53.14 396.766 56.9 396.606 61.22C396.446 65.54 395.086 68.98 392.526 71.54C389.966 73.94 386.606 75.14 382.446 75.14C377.966 75.14 374.366 73.78 371.646 71.06C368.926 68.34 366.766 65.22 365.166 61.7L363.726 57.62C361.486 52.34 359.486 49.22 357.726 48.26C356.126 47.14 353.326 48.26 349.326 51.62C345.006 55.3 340.926 60.26 337.086 66.5C333.406 72.74 330.446 79.62 328.206 87.14C325.966 94.66 324.846 102.34 324.846 110.18C324.846 122.18 327.406 131.06 332.526 136.82C337.806 142.42 344.846 145.22 353.646 145.22C359.406 145.22 365.086 143.38 370.686 139.7C376.286 136.02 381.486 130.9 386.286 124.34L389.646 126.74C386.286 132.98 381.966 138.82 376.686 144.26C371.406 149.7 365.326 154.1 358.446 157.46C351.726 160.82 344.526 162.5 336.846 162.5Z" fill="white"/>
<path d="M426.39 162.5C420.95 162.5 416.23 160.9 412.23 157.7C408.39 154.34 406.47 149.38 406.47 142.82C406.47 139.14 406.87 135.14 407.67 130.82C408.47 126.5 409.35 122.26 410.31 118.1L420.87 70.82C422.31 64.58 420.15 60.02 414.39 57.14L409.83 55.22L410.07 52.58L455.43 39.62L457.59 41.54L440.79 114.98C439.83 118.98 439.03 122.58 438.39 125.78C437.75 128.98 437.43 131.94 437.43 134.66C437.43 138.18 438.23 140.74 439.83 142.34C441.43 143.78 443.51 144.5 446.07 144.5C449.75 144.5 453.83 143.22 458.31 140.66C462.79 137.94 467.99 133.78 473.91 128.18C474.07 127.22 474.31 126.18 474.63 125.06L482.79 86.42C484.07 80.18 485.27 73.94 486.39 67.7C487.67 61.3 488.87 54.9 489.99 48.5L520.23 39.62L522.87 41.78L503.91 128.9C502.63 134.5 501.99 138.9 501.99 142.1C501.99 145.46 503.43 147.14 506.31 147.14C508.55 147.14 510.95 146.26 513.51 144.5C516.07 142.58 519.19 139.78 522.87 136.1L525.75 138.98C521.75 144.9 516.63 150.34 510.39 155.3C504.31 160.1 497.35 162.5 489.51 162.5C484.55 162.5 480.39 160.82 477.03 157.46C473.83 153.94 472.23 148.98 472.23 142.58C472.23 140.18 472.39 137.86 472.71 135.62C464.39 143.94 456.31 150.5 448.47 155.3C440.79 160.1 433.43 162.5 426.39 162.5Z" fill="white"/>
<path d="M565.794 162.5C555.714 162.5 547.554 160.5 541.314 156.5C535.074 152.5 531.954 146.82 531.954 139.46C531.954 135.62 533.314 132.26 536.034 129.38C538.754 126.5 542.274 125.06 546.594 125.06C554.594 125.06 559.554 129.94 561.474 139.7L562.914 146.42C563.714 149.78 564.674 152.5 565.794 154.58C567.074 156.66 569.474 157.7 572.994 157.7C576.994 157.7 580.514 156.02 583.554 152.66C586.594 149.3 588.114 144.66 588.114 138.74C588.114 134.26 586.674 129.94 583.794 125.78C581.074 121.62 576.434 117.06 569.874 112.1C563.314 106.98 558.034 101.7 554.034 96.26C550.034 90.66 548.034 84.02 548.034 76.34C548.034 69.62 549.714 63.54 553.074 58.1C556.594 52.5 561.634 48.1 568.194 44.9C574.754 41.54 582.514 39.86 591.474 39.86C601.874 39.86 610.034 41.94 615.954 46.1C622.034 50.26 625.074 55.62 625.074 62.18C625.074 65.7 624.034 68.66 621.954 71.06C619.874 73.3 616.754 74.42 612.594 74.42C604.914 74.42 599.714 69.78 596.994 60.5L594.594 53.78C593.794 50.58 592.834 48.34 591.714 47.06C590.594 45.78 588.834 45.14 586.434 45.14C583.874 45.14 581.234 46.58 578.514 49.46C575.794 52.18 574.434 56.58 574.434 62.66C574.434 68.42 576.114 73.7 579.474 78.5C582.994 83.14 588.194 88.02 595.074 93.14C602.114 98.42 607.234 103.54 610.434 108.5C613.794 113.46 615.474 119.46 615.474 126.5C615.474 133.06 613.554 139.06 609.714 144.5C605.874 149.94 600.274 154.34 592.914 157.7C585.554 160.9 576.514 162.5 565.794 162.5Z" fill="white"/>
<path d="M653.412 162.02C647.972 162.02 643.492 160.34 639.972 156.98C636.612 153.46 634.932 149.3 634.932 144.5C634.932 138.42 637.092 133.3 641.412 129.14C645.892 124.98 651.012 122.9 656.772 122.9C662.212 122.9 666.612 124.66 669.972 128.18C673.492 131.7 675.252 135.94 675.252 140.9C675.252 146.82 673.012 151.86 668.532 156.02C664.212 160.02 659.172 162.02 653.412 162.02Z" fill="#D1E231"/>
</svg>
