<svg width="676" height="163" viewBox="0 0 676 163" fill="none" xmlns="http://www.w3.org/2000/svg">
<path d="M0.47998 159L1.19998 156.6L5.03998 154.92C8.23998 153.48 10.72 151.72 12.48 149.64C14.24 147.56 15.44 144.76 16.08 141.24L28.56 75.0001C30.16 66.5201 31.84 57.2401 33.6 47.1601C35.36 37.0801 37.04 27.4001 38.64 18.1201C39.6 11.8801 37.36 7.4001 31.92 4.6801L28.8 3.0001L29.28 0.600098H83.28C99.92 0.600098 113.84 3.4801 125.04 9.2401C136.24 15.0001 144.64 22.9201 150.24 33.0001C155.84 43.0801 158.64 54.5201 158.64 67.3201C158.64 81.7201 156.08 94.6001 150.96 105.96C145.84 117.32 138.8 126.92 129.84 134.76C121.04 142.6 110.8 148.6 99.12 152.76C87.6 156.92 75.28 159 62.16 159H0.47998ZM46.8 154.2H59.04C72.8 154.2 84.48 150.36 94.08 142.68C103.68 135 111.04 124.44 116.16 111C121.44 97.5601 124.08 82.2801 124.08 65.1601C124.08 45.3201 120.4 30.6001 113.04 21.0001C105.68 11.2401 94.88 6.04009 80.64 5.40009H74.16L59.04 84.3601C56.96 96.0401 54.8 107.72 52.56 119.4C50.48 131.08 48.56 142.68 46.8 154.2Z" fill="black"/>
<path d="M215.781 162.6C207.461 162.6 199.861 161 192.981 157.8C186.101 154.44 180.661 149.48 176.661 142.92C172.661 136.2 170.661 127.72 170.661 117.48C170.661 107.24 172.341 97.4801 175.701 88.2001C179.221 78.9201 184.101 70.6801 190.341 63.4801C196.581 56.1201 203.861 50.3601 212.181 46.2001C220.501 42.0401 229.541 39.9601 239.301 39.9601C247.781 39.9601 255.301 41.6401 261.861 45.0001C268.581 48.2001 273.861 53.0801 277.701 59.6401C281.701 66.2001 283.701 74.6001 283.701 84.8401C283.701 94.9201 281.941 104.68 278.421 114.12C275.061 123.4 270.261 131.72 264.021 139.08C257.941 146.28 250.741 152.04 242.421 156.36C234.261 160.52 225.381 162.6 215.781 162.6ZM218.661 157.8C223.621 157.8 228.101 155.56 232.101 151.08C236.261 146.44 239.861 140.36 242.901 132.84C245.941 125.16 248.261 116.76 249.861 107.64C251.461 98.3601 252.261 89.1601 252.261 80.0401C252.261 66.7601 250.901 57.5601 248.181 52.4401C245.461 47.3201 241.941 44.7601 237.621 44.7601C232.501 44.7601 227.781 47.0001 223.461 51.4801C219.141 55.9601 215.381 61.9601 212.181 69.4801C208.981 77.0001 206.501 85.3201 204.741 94.4401C202.981 103.56 202.101 112.68 202.101 121.8C202.101 135.4 203.701 144.84 206.901 150.12C210.101 155.24 214.021 157.8 218.661 157.8Z" fill="black"/>
<path d="M337.326 162.6C325.486 162.6 315.806 158.6 308.286 150.6C300.766 142.6 297.006 131.4 297.006 117C297.006 106.76 298.766 97.0801 302.286 87.9601C305.806 78.6801 310.686 70.4401 316.926 63.2401C323.326 56.0401 330.606 50.3601 338.766 46.2001C347.086 42.0401 355.966 39.9601 365.406 39.9601C371.006 39.9601 376.206 40.8401 381.006 42.6001C385.966 44.3601 389.886 46.8401 392.766 50.0401C395.806 53.2401 397.246 57.0001 397.086 61.3201C396.926 65.6401 395.566 69.0801 393.006 71.6401C390.446 74.0401 387.086 75.2401 382.926 75.2401C378.446 75.2401 374.846 73.8801 372.126 71.1601C369.406 68.4401 367.246 65.3201 365.646 61.8001L364.206 57.7201C361.966 52.4401 359.966 49.3201 358.206 48.3601C356.606 47.2401 353.806 48.3601 349.806 51.7201C345.486 55.4001 341.406 60.3601 337.566 66.6001C333.886 72.8401 330.926 79.7201 328.686 87.2401C326.446 94.7601 325.326 102.44 325.326 110.28C325.326 122.28 327.886 131.16 333.006 136.92C338.286 142.52 345.326 145.32 354.126 145.32C359.886 145.32 365.566 143.48 371.166 139.8C376.766 136.12 381.966 131 386.766 124.44L390.126 126.84C386.766 133.08 382.446 138.92 377.166 144.36C371.886 149.8 365.806 154.2 358.926 157.56C352.206 160.92 345.006 162.6 337.326 162.6Z" fill="black"/>
<path d="M426.87 162.6C421.43 162.6 416.71 161 412.71 157.8C408.87 154.44 406.95 149.48 406.95 142.92C406.95 139.24 407.35 135.24 408.15 130.92C408.95 126.6 409.83 122.36 410.79 118.2L421.35 70.9201C422.79 64.6801 420.63 60.1201 414.87 57.2401L410.31 55.3201L410.55 52.6801L455.91 39.7201L458.07 41.6401L441.27 115.08C440.31 119.08 439.51 122.68 438.87 125.88C438.23 129.08 437.91 132.04 437.91 134.76C437.91 138.28 438.71 140.84 440.31 142.44C441.91 143.88 443.99 144.6 446.55 144.6C450.23 144.6 454.31 143.32 458.79 140.76C463.27 138.04 468.47 133.88 474.39 128.28C474.55 127.32 474.79 126.28 475.11 125.16L483.27 86.5201C484.55 80.2801 485.75 74.0401 486.87 67.8001C488.15 61.4001 489.35 55.0001 490.47 48.6001L520.71 39.7201L523.35 41.8801L504.39 129C503.11 134.6 502.47 139 502.47 142.2C502.47 145.56 503.91 147.24 506.79 147.24C509.03 147.24 511.43 146.36 513.99 144.6C516.55 142.68 519.67 139.88 523.35 136.2L526.23 139.08C522.23 145 517.11 150.44 510.87 155.4C504.79 160.2 497.83 162.6 489.99 162.6C485.03 162.6 480.87 160.92 477.51 157.56C474.31 154.04 472.71 149.08 472.71 142.68C472.71 140.28 472.87 137.96 473.19 135.72C464.87 144.04 456.79 150.6 448.95 155.4C441.27 160.2 433.91 162.6 426.87 162.6Z" fill="black"/>
<path d="M566.274 162.6C556.194 162.6 548.034 160.6 541.794 156.6C535.554 152.6 532.434 146.92 532.434 139.56C532.434 135.72 533.794 132.36 536.514 129.48C539.234 126.6 542.754 125.16 547.074 125.16C555.074 125.16 560.034 130.04 561.954 139.8L563.394 146.52C564.194 149.88 565.154 152.6 566.274 154.68C567.554 156.76 569.954 157.8 573.474 157.8C577.474 157.8 580.994 156.12 584.034 152.76C587.074 149.4 588.594 144.76 588.594 138.84C588.594 134.36 587.154 130.04 584.274 125.88C581.554 121.72 576.914 117.16 570.354 112.2C563.794 107.08 558.514 101.8 554.514 96.3601C550.514 90.7601 548.514 84.1201 548.514 76.4401C548.514 69.7201 550.194 63.6401 553.554 58.2001C557.074 52.6001 562.114 48.2001 568.674 45.0001C575.234 41.6401 582.994 39.9601 591.954 39.9601C602.354 39.9601 610.514 42.0401 616.434 46.2001C622.514 50.3601 625.554 55.7201 625.554 62.2801C625.554 65.8001 624.514 68.7601 622.434 71.1601C620.354 73.4001 617.234 74.5201 613.074 74.5201C605.394 74.5201 600.194 69.8801 597.474 60.6001L595.074 53.8801C594.274 50.6801 593.314 48.4401 592.194 47.1601C591.074 45.8801 589.314 45.2401 586.914 45.2401C584.354 45.2401 581.714 46.6801 578.994 49.5601C576.274 52.2801 574.914 56.6801 574.914 62.7601C574.914 68.5201 576.594 73.8001 579.954 78.6001C583.474 83.2401 588.674 88.1201 595.554 93.2401C602.594 98.5201 607.714 103.64 610.914 108.6C614.274 113.56 615.954 119.56 615.954 126.6C615.954 133.16 614.034 139.16 610.194 144.6C606.354 150.04 600.754 154.44 593.394 157.8C586.034 161 576.994 162.6 566.274 162.6Z" fill="black"/>
<path d="M653.892 162.12C648.452 162.12 643.972 160.44 640.452 157.08C637.092 153.56 635.412 149.4 635.412 144.6C635.412 138.52 637.572 133.4 641.892 129.24C646.372 125.08 651.492 123 657.252 123C662.692 123 667.092 124.76 670.452 128.28C673.972 131.8 675.732 136.04 675.732 141C675.732 146.92 673.492 151.96 669.012 156.12C664.692 160.12 659.652 162.12 653.892 162.12Z" fill="#D1E231"/>
</svg>
