<svg width="191" height="45" viewBox="0 0 191 45" fill="none" xmlns="http://www.w3.org/2000/svg">
<g clip-path="url(#clip0)">
<path fill-rule="evenodd" clip-rule="evenodd" d="M59.87 27.27C59.87 31.87 55.59 33.71 51.31 33.74C47.99 33.74 44.81 32.39 42.5 30L44.85 27.66C45.6407 28.6183 46.6249 29.3987 47.7381 29.9502C48.8514 30.5016 50.0686 30.8117 51.31 30.86C54.07 30.86 56.31 29.86 56.31 27.53C56.31 25.47 54.12 24.61 50.38 23.03C47.3 21.73 43.62 20.18 43.62 16.15C43.62 12.98 46.62 9.68 51.62 9.68C53.2309 9.66303 54.8261 9.99785 56.2942 10.6611C57.7623 11.3243 59.0679 12.3 60.12 13.52L57.77 15.77C56.9539 14.8182 55.95 14.0453 54.8211 13.4998C53.6922 12.9543 52.4628 12.648 51.21 12.6C49.05 12.6 47.21 13.8 47.21 15.83C47.21 18.69 50.51 19.73 52.98 20.71C56.26 22 59.87 23.66 59.87 27.27V27.27ZM73.06 33.58V24.73C73.06 21.56 71.79 20.14 69.06 20.14C66.33 20.14 65.06 21.56 65.06 24.73V33.58H61.87V8.85H65.14V20C65.7864 19.1589 66.6299 18.49 67.5961 18.0522C68.5623 17.6145 69.6215 17.4214 70.68 17.49C73.98 17.49 76.29 19.27 76.29 23.77V33.6L73.06 33.58Z" fill="white"/>
<path d="M80.32 13.7C79.9608 13.706 79.608 13.6049 79.3064 13.4096C79.0048 13.2144 78.7682 12.9339 78.6266 12.6037C78.4849 12.2735 78.4448 11.9087 78.5112 11.5556C78.5776 11.2026 78.7476 10.8773 78.9995 10.6211C79.2514 10.365 79.5738 10.1896 79.9257 10.1173C80.2776 10.045 80.6431 10.079 80.9756 10.2151C81.308 10.3512 81.5925 10.5831 81.7928 10.8814C81.993 11.1796 82.1 11.5307 82.1 11.89C82.1054 12.1266 82.0632 12.3619 81.976 12.582C81.8888 12.802 81.7584 13.0023 81.5925 13.1711C81.4265 13.3399 81.2284 13.4736 81.0098 13.5645C80.7913 13.6553 80.5567 13.7014 80.32 13.7V13.7ZM78.7 33.58V17.63H82V33.63L78.7 33.58ZM87.58 31.39V39.39H84.31V17.63H87.58V19.79C88.2077 19.0604 88.9858 18.4753 89.861 18.0748C90.7361 17.6744 91.6876 17.468 92.65 17.47C97.09 17.47 100.23 20.47 100.23 25.59C100.23 30.41 97.09 33.74 92.65 33.74C91.6858 33.735 90.734 33.5225 89.8592 33.117C88.9843 32.7115 88.207 32.1225 87.58 31.39V31.39ZM87.58 25.59C87.58 28.79 89.26 31.04 92.27 31.04C95.28 31.04 97 28.79 97 25.59C97 22.39 95.32 20.14 92.31 20.14C89.3 20.14 87.58 22.42 87.58 25.59Z" fill="white"/>
<path fill-rule="evenodd" clip-rule="evenodd" d="M124.21 27.27C124.21 31.87 119.93 33.71 115.65 33.74C112.32 33.74 109.15 32.39 106.83 30L109.18 27.66C109.972 28.619 110.958 29.3998 112.073 29.9513C113.188 30.5028 114.407 30.8124 115.65 30.86C118.4 30.86 120.65 29.86 120.65 27.53C120.65 25.47 118.46 24.61 114.72 23.03C111.64 21.73 107.97 20.18 107.97 16.15C107.97 12.98 110.97 9.68 115.92 9.68C117.531 9.66303 119.126 9.99785 120.594 10.6611C122.062 11.3243 123.368 12.3 124.42 13.52L122.07 15.77C121.254 14.8182 120.25 14.0453 119.121 13.4998C117.992 12.9543 116.763 12.648 115.51 12.6C113.36 12.6 111.51 13.8 111.51 15.83C111.51 18.69 114.81 19.73 117.28 20.71C120.59 22 124.21 23.66 124.21 27.27V27.27ZM137.39 33.58V24.73C137.39 21.56 136.13 20.14 133.39 20.14C130.65 20.14 129.39 21.56 129.39 24.73V33.58H126.2V8.85H129.47V20C130.114 19.1581 130.956 18.4871 131.92 18.046C132.884 17.6049 133.942 17.4071 135 17.47C138.29 17.47 140.61 19.25 140.61 23.75V33.58H137.39V33.58Z" fill="white"/>
<path d="M155.56 23.78V33.58H152.29V31.87C151.15 33.42 149.12 33.74 147.54 33.74C144.59 33.74 142.24 32.09 142.24 28.98C142.24 25.4 145.16 23.69 149.44 23.69H152.29C152.29 21.78 151.63 20.14 149.57 20.14C148.13 20.15 146.75 20.74 145.73 21.75L143.67 20.2C144.468 19.3585 145.425 18.6839 146.486 18.2152C147.547 17.7466 148.69 17.4933 149.85 17.47C153.59 17.47 155.56 19.44 155.56 23.78V23.78ZM152.29 26.6H149.88C146.62 26.6 145.51 27.36 145.51 28.82C145.51 30.28 146.84 31.07 148.3 31.07C151.37 31.07 152.3 29.77 152.3 28.07L152.29 26.6ZM161 31.39V39.39H157.74V17.63H161V19.79C161.628 19.0604 162.406 18.4753 163.281 18.0748C164.156 17.6744 165.108 17.468 166.07 17.47C170.51 17.47 173.65 20.47 173.65 25.59C173.65 30.41 170.51 33.74 166.07 33.74C165.106 33.735 164.154 33.5225 163.279 33.117C162.404 32.7115 161.627 32.1225 161 31.39V31.39ZM161 25.59C161 28.79 162.68 31.04 165.69 31.04C168.7 31.04 170.39 28.79 170.39 25.59C170.39 22.39 168.71 20.14 165.69 20.14C162.67 20.14 161 22.42 161 25.59ZM177.84 26.92C177.84 29.49 180.16 31.07 182.5 31.07C183.37 31.0603 184.23 30.8787 185.03 30.5354C185.83 30.1922 186.553 29.6941 187.16 29.07L189.1 30.87C188.264 31.7852 187.243 32.5131 186.106 33.006C184.968 33.4989 183.74 33.7457 182.5 33.73C177.68 33.73 174.64 30.43 174.64 25.73C174.64 21.03 177.97 17.42 182.5 17.42C187.03 17.42 190.05 20.88 190.05 25.42V26.88L177.84 26.92ZM182.5 20.14C181.349 20.0931 180.225 20.4975 179.368 21.2671C178.51 22.0366 177.987 23.1105 177.91 24.26H186.78C186.798 23.7003 186.699 23.143 186.488 22.6242C186.277 22.1054 185.96 21.6366 185.556 21.2483C185.153 20.8599 184.672 20.5606 184.146 20.3697C183.619 20.1787 183.059 20.1005 182.5 20.14ZM27.19 11.3C27.19 9.16 26.62 7.05 25.54 5.2C24.4746 3.50809 22.9238 2.1768 21.09 1.38C18.7164 0.392593 16.1596 -0.0778468 13.59 1.16415e-07C7.84 1.16415e-07 3.84 1.72 1.7 5.12C-2.1 11.12 1.45 20.38 3.02 23.83C2.89 24.37 2.72 24.9 2.5 25.41C1.85989 27.0506 1.7999 28.8607 2.33 30.54C2.43154 30.8025 2.58735 31.0407 2.78725 31.2388C2.98714 31.437 3.22661 31.5907 3.49 31.69C3.89 31.84 4.33 31.84 4.73 31.69V32.17C4.29 32.13 3.86 32.24 3.5 32.49C2.86241 32.9732 2.39915 33.6506 2.18 34.42C1.93351 35.1773 1.85169 35.9785 1.94 36.77C2.05 37.97 2.77 39.02 3.85 39.56C3.62862 40.2379 3.60511 40.9648 3.78223 41.6556C3.95934 42.3463 4.32975 42.9723 4.85 43.46C5.43881 44.0789 6.20467 44.5005 7.04254 44.667C7.88042 44.8335 8.74929 44.7368 9.53 44.39C10.2861 44.0246 10.9598 43.509 11.51 42.8745C12.0602 42.2401 12.4753 41.5002 12.73 40.7C13.14 39.6 13.41 38.44 13.52 37.26C13.64 38.43 13.92 39.59 14.34 40.69C14.6069 41.4917 15.0334 42.231 15.5936 42.8634C16.1539 43.4959 16.8364 44.0084 17.6 44.37C18.16 44.61 18.76 44.74 19.37 44.74C20.5 44.74 21.59 44.28 22.37 43.46C23.44 42.46 23.81 40.9 23.29 39.52C23.7928 39.2462 24.2207 38.8532 24.5363 38.3755C24.8519 37.8977 25.0454 37.3499 25.1 36.78C25.19 35.98 25.1 35.18 24.85 34.43C24.6309 33.6606 24.1676 32.9832 23.53 32.5C23.1749 32.2505 22.7419 32.1369 22.31 32.18V31.7C22.71 31.85 23.14 31.85 23.54 31.7C23.8052 31.6019 24.0467 31.4487 24.2483 31.2505C24.45 31.0523 24.6074 30.8135 24.71 30.55C25.2313 28.8688 25.1679 27.0606 24.53 25.42C24.33 25.02 24.15 24.61 24 24.18C25.0293 21.9839 25.8431 19.6932 26.43 17.34C26.95 15.37 27.21 13.34 27.19 11.3V11.3ZM22.19 24C22.35 24.72 22.57 25.42 22.85 26.1C23.46 27.49 23.26 29.93 22.85 30.1C22.44 30.27 22.48 27.87 21.44 26.1C21.3005 25.8705 21.1736 25.6334 21.06 25.39C21.3 26.84 21.47 28.93 20.73 30.13C19.86 31.63 21.46 36.47 21.93 36.53C22.59 36.63 21.93 33.53 22.5 33.9C23.34 34.48 24.02 37.45 22.19 38.1C20.52 38.69 17.4 33.9 18.34 30.1C18.84 28.57 17.96 25.36 17.69 24.1C18.15 27.05 18.14 30.06 17.64 33C16.7 38.91 18.59 41 19.21 40.76C20.06 40.42 19.55 38.97 19.55 38.76C19.94 38.07 23.13 40.26 21.08 42.35C19.3 44.25 14.57 43.03 15.08 33.52C15.2541 30.7937 14.7093 28.0696 13.5 25.62C12.2144 28.0452 11.6325 30.7815 11.82 33.52C12.34 43.03 7.82 44.25 6.02 42.35C4 40.18 7 38 7.42 38.68C7.42 38.68 6.84 40.39 7.7 40.68C8.31 40.91 10.2 39.08 9.26 33.17C8.73 30.15 8.73 27.07 9.26 24.05C8.97 25.34 8 28.55 8.51 30.05C9.45 33.82 6.41 38.61 4.74 38.05C2.91 37.4 3.58 34.43 4.43 33.85C5 33.47 4.33 36.58 5 36.48C5.47 36.42 7.07 31.58 6.2 30.08C5.46 28.88 5.63 26.79 5.86 25.34C5.75 25.58 5.63 25.82 5.49 26.05C4.49 27.8 4.49 30.17 4.07 30.05C3.65 29.93 3.46 27.46 4.07 26.05C4.4 25.25 4.66 24.43 4.82 23.58C3.29 20.42 -4.85 1.71 13.59 1.71C33 1.71 23 22.38 22.21 24H22.19ZM5.37 20.13C5.37 19.8936 5.41656 19.6596 5.50702 19.4412C5.59747 19.2228 5.73006 19.0244 5.89721 18.8572C6.06435 18.6901 6.26278 18.5575 6.48117 18.467C6.69956 18.3766 6.93362 18.33 7.17 18.33C7.40638 18.33 7.64044 18.3766 7.85883 18.467C8.07722 18.5575 8.27565 18.6901 8.44279 18.8572C8.60994 19.0244 8.74252 19.2228 8.83298 19.4412C8.92344 19.6596 8.97 19.8936 8.97 20.13C8.97 20.6074 8.78036 21.0652 8.44279 21.4028C8.10523 21.7404 7.64739 21.93 7.17 21.93C6.69261 21.93 6.23477 21.7404 5.89721 21.4028C5.55964 21.0652 5.37 20.6074 5.37 20.13V20.13ZM19.87 21.91C20.3474 21.9073 20.8042 21.7152 21.1399 21.3757C21.4756 21.0363 21.6627 20.5774 21.66 20.1C21.6573 19.6226 21.4652 19.1658 21.1257 18.8301C20.7863 18.4944 20.3274 18.3073 19.85 18.31C19.6136 18.3113 19.3798 18.3592 19.1619 18.4508C18.944 18.5425 18.7464 18.6762 18.5801 18.8443C18.4139 19.0124 18.2824 19.2115 18.1932 19.4304C18.1039 19.6493 18.0587 19.8836 18.06 20.12C18.0613 20.3564 18.1092 20.5902 18.2008 20.8081C18.2925 21.026 18.4262 21.2236 18.5943 21.3899C18.7624 21.5561 18.9615 21.6876 19.1804 21.7768C19.3993 21.8661 19.6336 21.9113 19.87 21.91V21.91Z" fill="white"/>
</g>
<defs>
<clipPath id="clip0">
<rect width="191" height="45" fill="white"/>
</clipPath>
</defs>
</svg>
