<svg width="1001" height="215" viewBox="0 0 1001 215" fill="none" xmlns="http://www.w3.org/2000/svg">
<path d="M294.84 148.79C287.54 148.79 280.45 147.75 273.36 145.46C266.707 143.311 260.591 139.765 255.42 135.06L264.8 119.26C269.581 122.544 274.684 125.331 280.03 127.58C284.83 129.66 289.63 130.49 294.22 130.49C297.56 130.49 300.27 129.87 302.15 128.62C304.02 127.58 304.85 125.72 304.85 123.42C304.85 121.35 303.82 119.27 301.31 118.02C297.391 116.147 293.261 114.75 289.01 113.86L274.41 109.08C270.44 107.42 267.31 105.75 264.81 103.88C262.462 102.337 260.584 100.178 259.38 97.64C258.245 95.0182 257.676 92.1866 257.71 89.33C257.651 85.2864 258.501 81.2812 260.197 77.6101C261.893 73.9389 264.392 70.6958 267.51 68.12C270.44 65.62 274.19 63.75 278.36 62.3C282.732 60.8534 287.316 60.1503 291.92 60.22C298.39 60.22 304.44 61.05 310.07 62.72C316.086 64.7758 321.624 68.0277 326.35 72.28L316.12 87.88C312.082 84.9991 307.747 82.5585 303.19 80.6C299.633 79.0617 295.795 78.2785 291.92 78.3C289.22 78.3 286.71 78.72 284.83 79.97C282.75 81.01 281.91 82.88 281.91 85.37C281.861 86.4765 282.129 87.574 282.684 88.5327C283.239 89.4914 284.056 90.2712 285.04 90.78C287.13 92.03 291.3 93.28 296.94 94.73C302.16 96.05 307.31 97.64 312.37 99.52C315.969 100.929 319.398 102.741 322.59 104.92C325.111 106.768 327.123 109.225 328.436 112.062C329.75 114.898 330.322 118.022 330.1 121.14C330.1 129.66 326.97 136.32 320.5 141.31C314.25 146.3 305.9 148.79 294.84 148.79V148.79ZM398.11 142.76C394.096 144.398 389.985 145.787 385.8 146.92C381.254 148.236 376.552 148.935 371.82 149C368.48 149 365.56 148.58 362.64 147.75C359.801 146.925 357.17 145.508 354.92 143.59C352.84 141.93 351.17 139.43 349.92 136.73C348.507 133.376 347.796 129.769 347.83 126.13V81.43H336.98V61.88H348.04V34.65H373.91V61.68H391.43V81.43H373.91V117.19C373.91 119.89 374.53 121.97 375.99 123.43C377.583 124.535 379.481 125.115 381.42 125.09C383.5 125.09 385.59 124.88 387.47 124.05C389.347 123.555 391.164 122.857 392.89 121.97L397.89 142.77H398.11V142.76ZM446.92 148.79C440.284 148.907 433.69 147.707 427.52 145.26C422.159 143.149 417.306 139.928 413.28 135.806C409.253 131.685 406.145 126.759 404.16 121.35C400.059 110.494 400.059 98.5157 404.16 87.66C406.147 82.2533 409.255 77.3284 413.281 73.2091C417.308 69.0899 422.16 65.8696 427.52 63.76C433.15 61.46 439.62 60.22 446.92 60.22C453.193 59.9222 459.456 60.9742 465.287 63.3049C471.118 65.6356 476.381 69.1907 480.72 73.73C484.626 77.7149 487.679 82.4549 489.69 87.66C493.96 98.56 493.96 110.66 489.69 121.56C487.69 126.904 484.598 131.772 480.61 135.853C476.622 139.934 471.826 143.138 466.53 145.26C460.298 147.733 453.633 148.934 446.93 148.79H446.92ZM428.15 104.71C428.15 111.37 429.82 116.77 433.36 120.72C437.12 124.88 441.71 126.96 447.13 126.96C452.37 127.06 457.37 124.76 460.69 120.72C462.416 118.615 463.756 116.221 464.65 113.65C465.674 110.783 466.169 107.754 466.11 104.71C466.11 97.85 464.24 92.45 460.69 88.5C459.047 86.5041 456.974 84.906 454.625 83.8253C452.277 82.7447 449.715 82.2095 447.13 82.26C444.552 82.2538 442.004 82.8087 439.663 83.8862C437.321 84.9638 435.242 86.5382 433.57 88.5C431.777 90.5908 430.366 92.9805 429.4 95.56C428.46 98.5153 428.037 101.611 428.15 104.71V104.71ZM560.2 84.13C553.94 84.13 548.1 85.17 542.88 87.25C538.296 88.7904 534.389 91.8765 531.83 95.98V147.34H505.75V61.88H529.75V78.93C532.66 73.11 536.42 68.53 541.21 65.42C545.436 62.2439 550.528 60.4301 555.81 60.22H558.53L560.2 60.42V84.13ZM571.67 160.02C575.3 161.278 579.1 161.979 582.94 162.1C586.07 162.1 588.57 161.06 590.44 158.98C592.12 156.9 593.58 152.74 595.04 147.34L562.49 61.88H589.4L609.22 124.88L626.54 61.88H650.94L618.19 161.06C615.692 169.193 610.237 176.095 602.901 180.404C595.565 184.714 586.88 186.118 578.56 184.34C576.193 183.907 573.882 183.209 571.67 182.26V160.02V160.02ZM712.69 148.79C706.23 148.79 700.39 147.54 695.59 144.63C690.717 141.967 686.672 138.012 683.9 133.2V147.34H661.17V28.4H687.45V75.8C690.259 70.9123 694.343 66.8798 699.266 64.1338C704.189 61.3878 709.766 60.0315 715.4 60.21C720.83 60.21 725.84 61.25 730.42 63.74C735.02 65.82 738.77 69.15 742.32 73.1C747.379 80.0947 750.699 88.1946 752.003 96.7282C753.307 105.262 752.559 113.983 749.82 122.17C747.851 127.363 744.954 132.154 741.27 136.31C737.642 140.27 733.224 143.425 728.301 145.573C723.379 147.721 718.061 148.813 712.69 148.78V148.79ZM705.39 126.96C709.515 126.975 713.543 125.701 716.909 123.317C720.276 120.932 722.814 117.556 724.17 113.66C725.675 109.539 726.101 105.101 725.406 100.768C724.711 96.4362 722.919 92.3539 720.2 88.91C718.588 86.7984 716.501 85.096 714.109 83.9407C711.717 82.7854 709.086 82.2096 706.43 82.26C702.47 82.26 698.72 83.71 695.17 86.42C691.74 89.3707 689.028 93.0642 687.24 97.22V115.11C688.896 118.58 691.498 121.513 694.745 123.572C697.993 125.631 701.755 126.732 705.6 126.75L705.4 126.96H705.39ZM765.47 28.41H791.55V116.77C791.55 123.43 794.26 126.54 799.89 126.54C802.87 126.55 805.81 125.84 808.45 124.46L811.99 143.8C804.683 146.989 796.812 148.686 788.84 148.79C781.33 148.79 775.48 146.71 771.52 142.97C767.35 138.81 765.26 133.4 765.26 125.92V28.41H765.47V28.41ZM861.22 148.79C854.584 148.907 847.99 147.707 841.82 145.26C836.427 143.162 831.539 139.948 827.477 135.827C823.415 131.706 820.27 126.772 818.25 121.35C815.289 113.326 814.539 104.653 816.081 96.2402C817.622 87.8272 821.397 79.9833 827.01 73.53C831.186 69.3414 836.147 66.0179 841.61 63.75C847.25 61.47 853.71 60.22 861.01 60.22C867.283 59.9222 873.546 60.9742 879.377 63.3049C885.208 65.6356 890.471 69.1907 894.81 73.73C898.98 77.68 901.69 82.47 903.78 87.66C906.856 95.666 907.665 104.365 906.12 112.801C904.575 121.237 900.734 129.084 895.02 135.48C890.937 139.78 885.951 143.121 880.42 145.26C874.25 147.707 867.656 148.907 861.02 148.79H861.22ZM842.24 104.71C842.24 111.37 843.91 116.77 847.46 120.72C851.21 124.88 855.8 126.96 861.22 126.96C863.802 126.995 866.36 126.453 868.706 125.374C871.052 124.294 873.127 122.704 874.78 120.72C876.509 118.615 877.853 116.222 878.75 113.65C879.774 110.783 880.269 107.754 880.21 104.71C880.21 97.85 878.33 92.45 874.78 88.5C873.137 86.5041 871.064 84.906 868.715 83.8253C866.367 82.7447 863.805 82.2095 861.22 82.26C858.642 82.2538 856.094 82.8087 853.753 83.8862C851.411 84.9638 849.332 86.5382 847.66 88.5C845.867 90.5908 844.456 92.9805 843.49 95.56C842.45 98.48 842.24 101.39 842.24 104.71V104.71ZM977.63 147.34L955.31 112.82L946.13 122.39V147.34H920.05V28.4H946.13V97.22L975.13 61.87H1002.87L972 98.68L1005.37 147.34H977.63V147.34Z" fill="white"/>
<path d="M107.77 102.28H64.49V123.16H106.73C109.211 123.111 111.584 122.141 113.39 120.44C115.05 118.77 116.09 116.27 116.09 113.14C116.15 110.45 115.35 107.82 113.8 105.62C112.14 103.53 110.26 102.28 107.77 102.28V102.28ZM109.22 77.02C111.1 75.77 111.92 73.06 111.92 69.51C111.92 66.38 111.1 64.08 109.64 62.62C108.149 61.2977 106.233 60.5559 104.24 60.53H64.48V79.32H103.38C105.47 79.32 107.55 78.28 109.21 77.02H109.22Z" fill="#09B3AF"/>
<path d="M172.68 4.66593e-07H9.36C6.90377 -0.0160504 4.54092 0.940263 2.78729 2.66018C1.03365 4.38009 0.0316416 6.72392 0 9.18V173.25C0 178.26 4.16 181.39 9.15 181.39H33.3V214.17L63.26 181.6H172.69C177.69 181.6 180.8 178.47 180.8 173.25V9.4C180.8 4.4 177.68 0.22 172.48 0.22L172.68 0.0100005V4.66593e-07ZM145.22 132.97C143.078 136.751 139.995 139.913 136.27 142.15C132.32 144.65 127.95 146.95 122.96 148C117.96 149.25 112.56 150.3 106.94 150.3H33.29V33.4H116.92C121.08 33.4 124.62 34.23 127.95 36.11C131.117 37.7968 133.939 40.0627 136.27 42.79C140.932 48.5001 143.435 55.6691 143.34 63.04C143.34 68.47 141.89 73.68 139.18 78.69C136.38 83.73 131.98 87.69 126.7 89.97C133.36 91.84 138.56 95.18 142.51 99.99C146.26 104.99 148.13 111.47 148.13 119.61C148.13 124.83 147.09 129.21 145.01 132.97H145.21H145.22Z" fill="#09B3AF"/>
</svg>
