<svg width="107" height="114" fill="none" xmlns="http://www.w3.org/2000/svg"><path d="M13.1326 44.7524L9.38234 57.911c-.20199.8713-2.73769 7.7158-2.87519 8.0944l4.31925-.8584 2.9408-20.9368c-.0814.0024-.5645.3501-.6346.5422z" fill="#00DC82"/><path d="M16.6553 46.1131c-.2599-.2819-2.6013-2.0687-2.8919-1.8982l-3.1415 20.9503 8.083-.8546 12.7582-6.5797-14.8078-11.6178z" fill="#33E39B"/><path d="M21.2746 95.5749L6.50211 65.9953l4.31909-.859 18.8617 32.7744c-.1782-.0237-8.2698-2.1852-8.4083-2.3358z" fill="#00DC82"/><path d="M38.184 94.9199c-.1318.3598-8.1794 3.0436-8.5133 2.9972L10.6156 65.1316l3.9121-.7775 16.9287-6.627 6.7276 37.1928z" fill="#33E39B"/><path opacity=".75" d="M24.513 62.4444l-6.5963 1.311-3.8944 7.3663 2.1564 3.8703 5.5282-4.8807 2.8061-7.6669z" fill="#33E39B"/><path opacity=".75" d="M31.4605 57.7299l4.8977 27.156L12.101 55.3903l.7333-4.9765 12.8253 2.7652 5.8009 4.5509z" fill="#99F1CD"/><path d="M76.3945 11.8185L56.7883 25.7784c-1.2344.9752-12.2364 7.594-12.8412 7.9632l6.8772 3.5648 27.0375-25.5358c-.1143-.0861-1.16-.139-1.4673.0479z" fill="#00DC82"/><path d="M79.7466 17.5528c-.0474-.6729-1.3019-5.6997-1.8883-5.7845L50.5302 37.1021l12.0443 7.7043 24.7562 4.9734-7.5841-32.227z" fill="#33E39B"/><path d="M31.7665 90.5852l12.1936-56.8668 6.8777 3.5638L40.7533 103.03c-.2187-.228-8.9619-12.0857-8.9868-12.4448z" fill="#00DC82"/><path d="M55.7099 108.26c-.5764.35-14.5812-4.802-14.9889-5.233l9.831-65.9755 6.2291 3.2289 30.5381 9.4894L55.7099 108.26z" fill="#33E39B"/><path opacity=".75" d="M72.6029 48.6247l-10.5028-5.4442-13.442 5.8433-1.2882 7.6862 12.9563-.6335 12.2767-7.4518z" fill="#33E39B"/><path opacity=".75" d="M87.3304 49.7767L64.2313 92.4671l-.93-67.1694 6.4736-6.032 14.5839 17.8866 2.9716 12.6244z" fill="#99F1CD"/></svg>