<svg width="108" height="128" fill="none" xmlns="http://www.w3.org/2000/svg"><path d="M13.9597 35.385L8.53821 50.2201c-.29843.9804-3.88285 8.7201-4.07752 9.1481l5.67791-1.1285 4.6718-23.4849c-.1064.0059-.7514.413-.8507.6302z" fill="#00DC82"/><path d="M18.509 36.7648c-.3285-.3044-3.3173-2.2064-3.7037-2.0046L9.87067 58.2681l10.59603-1.2726 16.9317-7.8472L18.509 36.7648z" fill="#33E39B"/><path d="M34.3715 117.28L4.45501 59.357l5.67779-1.1291 33.8269 56.6551s-9.4132 2.56-9.5882 2.397z" fill="#00DC82"/><path d="M71.8998 116.276l-27.9376-1.387L9.86398 58.2307l5.14282-1.0221L37.39 49.1443l45.0551 61.8597-6.0416-.769-4.5037 6.041z" fill="#33E39B"/><path opacity=".75" d="M28.1306 54.6834l-8.6713 1.7233-5.3806 8.3757 2.6646 4.2348 7.417-5.6656 3.9703-8.6682z" fill="#33E39B"/><path opacity=".75" d="M37.3955 49.1472l5.3246 30.1175L12.191 47.2992l1.1552-5.5835 16.6494 2.5807 7.3999 4.8508z" fill="#99F1CD"/><path d="M96.2822 41.14l4.1508 11.3585c.229.7507 2.973 6.6766 3.122 7.0043l-4.3471-.864-3.577-17.9813c.0814.0044.5753.3162.6513.4825z" fill="#00DC82"/><path d="M92.7996 42.1965c.2515-.2331 2.5399-1.6893 2.8358-1.5348l3.7782 17.9989-8.1129-.9744-12.9639-6.0082 14.4628-9.4815z" fill="#33E39B"/><path d="M82.8569 111.166L103.56 59.4944l-4.3471-.8645L71.927 101.523s10.7959 9.768 10.9299 9.643z" fill="#00DC82"/><path d="M51.9207 103.075l24.6331 5.988 22.8649-50.4309-3.9376-.7826-17.1378-6.1745-34.4966 47.3631 4.6257-.5888 3.4483 4.6257z" fill="#33E39B"/><path opacity=".75" d="M85.4328 55.916l6.6393 1.3195 4.1196 6.4128-2.0402 3.2424-5.6788-4.3379-3.0399-6.6368z" fill="#33E39B"/><path opacity=".75" d="M78.339 51.6772l-4.0768 23.0596L97.637 50.2623l-.8844-4.2751-12.7478 1.976-5.6658 3.714z" fill="#99F1CD"/><path d="M53.0724 1.05185L40.8295 22.6065c-.7291 1.4469-8.127 12.408-8.5313 13.0154l7.9708.3407L54.4218.369586c-.1442-.03071-1.1437.374199-1.3494.682264z" fill="#00DC82"/><path d="M58.6942 4.95001C58.3576 4.3423 55.0021.193304 54.4175.368886L39.9057 35.8997l14.5945 1.9611 25.2785-6.1122L58.6942 4.95001z" fill="#33E39B"/><path d="M48.6521 114.887L32.3003 35.5946l7.9709.3396L62.8339 115.83s-14.0026-.618-14.1818-.943z" fill="#00DC82"/><path d="M75.6603 100.097c-.3864.577-15.7028 1.851-16.2705 1.626l-19.4857-65.88 7.2196.3086 32.6399-4.4072-4.1033 68.3526z" fill="#33E39B"/><path opacity=".75" d="M65.5238 37.0692l-12.1731-.5204-10.0133 11.2969 2.1366 7.7371 11.8234-6.221 8.2264-12.2926z" fill="#33E39B"/><path opacity=".75" d="M79.7769 31.7459L74.838 111.506 46.7025 19.3277l3.4242-8.4455 21.3902 10.366 8.26 10.4977z" fill="#99F1CD"/></svg>