<svg width="94" height="116" fill="none" xmlns="http://www.w3.org/2000/svg"><path d="M48.9074 13.5269L34.4487.954102 23.7619 108.032l5.0291 1.257h6.915l4.4005-2.724h6.4959l2.305-93.0381zM75.686 55.6661l3.1251 10.9652c.1683.726 2.2813 6.4296 2.3959 6.7451l-3.5992-.7153-2.4506-17.4468c.0678.002.4703.2917.5288.4518z" fill="#00DC82"/><path d="M72.7516 56.8002c.2166-.2349 2.1678-1.7238 2.4099-1.5817l2.6179 17.458-6.7357-.7121-10.6315-5.483 12.3394-9.6812z" fill="#33E39B"/><path d="M68.9024 98.0172l12.31-24.649-3.5991-.7158-15.7176 27.3112c.1484-.0198 6.8912-1.8209 7.0067-1.9464z" fill="#00DC82"/><path d="M54.8116 97.4714c.1099.2998 6.816 2.5366 7.0942 2.4975l15.8788-27.3204-3.26-.648-14.1068-5.5222-5.6062 30.9931z" fill="#33E39B"/><path opacity=".75" d="M66.2038 70.4092l5.4968 1.0924 3.2452 6.1385-1.797 3.2251-4.6067-4.0671-2.3383-6.3889z" fill="#33E39B"/><path opacity=".75" d="M60.4143 66.4805L56.333 89.1099l20.2137-24.579-.611-4.1469-10.6874 2.3043-4.834 3.7922z" fill="#99F1CD"/><path d="M91.8851 96.8327l-8.7172 7.3493c-.593.451-4.9273 4.719-5.1679 4.953l-.8246-3.576 14.9047-9.3939c.026.0626-.073.5486-.195.6676z" fill="#00DC82"/><path d="M89.6468 94.6221c.3031.1011 2.4615 1.2695 2.4313 1.5486l-14.8463 9.5513-2.1145-6.4349.6375-11.9452 13.892 7.2802z" fill="#33E39B"/><path d="M50.4802 108.025l27.5295 1.111-.8241-3.576-31.3555-3.126c.0789.127 4.4883 5.537 4.6501 5.591z" fill="#00DC82"/><path d="M45.1959 94.951c-.2283.2232.484 7.256.6334 7.494l31.4301 3.27-.7468-3.239-.7526-15.1302-30.5641 7.6052z" fill="#33E39B"/><path opacity=".75" d="M74.5494 94.2352l1.2593 5.461-4.2661 5.4778-3.6785-.315 1.8186-5.8698 4.8667-4.754z" fill="#33E39B"/><path opacity=".75" d="M75.7565 87.3435l-22.3111 5.5639 30.7088 8.3476 3.531-2.2586-6.4868-8.8007-5.4419-2.8522zM34.8138 31.3758V14.2252L48.832 29.4477l-.2068 8.0668-6.6337-2.8732-7.1777-3.2655z" fill="#99F1CD"/><path d="M54.9353 24.351l7.6109 8.7966c.4618.597 4.953 4.9887 5.1989 5.2325l-4.2043.7074-9.3559-14.948c.0748-.0238.6253.0879.7504.2115z" fill="#00DC82"/><path d="M52.1632 26.4904c.1465-.2954 1.7071-2.3863 2.0259-2.3484l9.5429 14.8951-7.6279 1.8938-13.7089-.9764 9.768-13.4641z" fill="#33E39B"/><path d="M60.9457 93.9888l6.7997-55.6177-4.2043.7069-9.7217 56.402s7.0484-1.3335 7.1263-1.4912z" fill="#00DC82"/><path d="M36.1899 95.1913h17.6295l9.9075-56.1817-3.808.6407-17.5189.2992-14.8489 54.3684 3.9586-2.1088 4.6802 2.9822z" fill="#33E39B"/><path opacity=".75" d="M50.2231 41.3426l6.4207-1.0804 5.894 4.36-.7275 3.6123-6.5877-1.9618-4.9995-4.9301z" fill="#33E39B"/><path opacity=".75" d="M42.3969 39.9529l4.2074 22.1278L59.267 32.0916l-2.2549-3.5422-10.7884 6.1293-3.8268 5.2742z" fill="#99F1CD"/><path d="M20.7438 54.4745L6.94215 47.3786l-.55867 8.2708L28.3024 107.284l4.2997-4.011-11.8583-48.7985z" fill="#33E39B"/><path d="M13.2113 71.0694l-3.5592-7.8879-.48095-3.0677H21.9935l3.3331 13.3851-12.1153-2.4295z" fill="#7FEDC0"/><path d="M6.95051 47.3967L.688232 64.9309 19.3924 108.08l8.9497-.756L9.8445 63.7587l-2.89399-16.362z" fill="#00DC82"/><path d="M34.8217.65332L16.8515 12.6334l6.4892 95.5916h11.481V.65332z" fill="#33E39B"/><path opacity=".75" d="M34.7926 78.4967V61.3646l-13.113 15.4041v8.5117l5.618-3.1634 7.495-3.6203z" fill="#99F1CD"/></svg>