<svg viewBox="0 0 44 44" fill="none" xmlns="http://www.w3.org/2000/svg">
<path fill-rule="evenodd" clip-rule="evenodd" d="M0 21.9132C0 9.81083 9.8497 0 21.9999 0C34.1503 0 44 9.81083 44 21.9132C44 34.0155 34.1503 43.8264 21.9999 43.8264H0V21.9132ZM19.6215 17.175C22.2486 17.175 24.3785 19.2965 24.3785 21.9132C24.3785 24.5299 22.2486 26.6511 19.6215 26.6511C16.9945 26.6511 14.8646 24.5299 14.8646 21.9129C14.8646 19.2965 16.9945 17.175 19.6215 17.175ZM38.6488 21.9132C38.6488 19.2965 36.5189 17.175 33.8919 17.175C31.265 17.175 29.1351 19.2965 29.1351 21.9132C29.1351 24.5299 31.265 26.6511 33.8919 26.6511C36.5189 26.6511 38.6488 24.5302 38.6488 21.9132Z" fill="#ffffff"/>
</svg>

