<svg width="75" height="75" fill="none" xmlns="http://www.w3.org/2000/svg"><mask id="a" maskUnits="userSpaceOnUse" x="0" y="4" width="75" height="69"><path d="M1.91487 45.6651L13.497 65.8046v-.0247c1.2621 2.1807 3.0726 3.9914 5.2508 5.2516 2.1782 1.2601 4.6479 1.9257 7.1627 1.9302h23.179c2.5149-.004 4.9848-.6694 7.1631-1.9296s3.9887-3.0712 5.2505-5.2522l11.582-20.1148C74.3397 43.4796 75 41.0023 75 38.4808c0-2.5215-.6603-4.9988-1.9149-7.1842l-11.582-20.1148c-1.2631-2.18321-3.0758-3.99561-5.2569-5.25595C54.0651 4.6655 51.5922 4.00141 49.0747 4H25.9105c-2.5148.0045-4.9845.67002-7.1627 1.93019-2.1782 1.26016-3.9887 3.07091-5.2508 5.25161L1.91487 31.2966C.660299 33.482 0 35.9593 0 38.4808c0 2.5215.660299 4.9988 1.91487 7.1843z" fill="#00DC82"/></mask><g mask="url(#a)"><path d="M1.91487 45.6651L13.497 65.8046v-.0247c1.2621 2.1807 3.0726 3.9914 5.2508 5.2516 2.1782 1.2601 4.6479 1.9257 7.1627 1.9302h23.179c2.5149-.004 4.9848-.6694 7.1631-1.9296s3.9887-3.0712 5.2505-5.2522l11.582-20.1148C74.3397 43.4796 75 41.0023 75 38.4808c0-2.5215-.6603-4.9988-1.9149-7.1842l-11.582-20.1148c-1.2631-2.18321-3.0758-3.99561-5.2569-5.25595C54.0651 4.6655 51.5922 4.00141 49.0747 4H25.9105c-2.5148.0045-4.9845.67002-7.1627 1.93019-2.1782 1.26016-3.9887 3.07091-5.2508 5.25161L1.91487 31.2966C.660299 33.482 0 35.9593 0 38.4808c0 2.5215.660299 4.9988 1.91487 7.1843z" fill="#00DC82"/><path opacity=".3" d="M-8.08513 45.6668L3.49695 65.8063v-.0247c1.26216 2.1807 3.07265 3.9914 5.25083 5.2516 2.17822 1.2601 4.64792 1.9257 7.16272 1.9302h23.179c2.5149-.004 4.9848-.6694 7.1631-1.9296s3.9887-3.0712 5.2505-5.2522l11.582-20.1148C64.3397 43.4813 65 41.004 65 38.4825c0-2.5215-.6603-4.9988-1.9149-7.1842l-11.582-20.1148c-1.2631-2.1832-3.0758-3.9956-5.2569-5.25594-2.1811-1.26035-4.654-1.92444-7.1715-1.92585H15.9105c-2.5148.00449-4.9845.67002-7.16272 1.93019-2.17818 1.26016-3.98867 3.07091-5.25083 5.2516L-8.08513 31.2983C-9.3397 33.4837-10 35.961-10 38.4825c0 2.5215.6603 4.9988 1.91487 7.1843z" fill="#fff"/></g><path d="M53.5785 43.7056l-2.9607-1.7359c.2989-1.637.2989-3.3165 0-4.9536l2.9607-1.7358c.3405-.1976.4934-.6069.3822-.9879-.7714-2.5121-2.0849-4.7843-3.8016-6.6754-.2641-.2893-.695-.3599-1.0286-.1623l-2.9607 1.7359c-1.244-1.0867-2.6757-1.9264-4.2256-2.4768v-3.4647c0-.3952-.271-.741-.6533-.8256-2.5506-.5787-5.1638-.5504-7.5894 0-.3822.0846-.6533.4304-.6533.8256v3.4717c-1.5429.5575-2.9746 1.3972-4.2256 2.4768l-2.9537-1.7359c-.3406-.1975-.7645-.134-1.0286.1623-1.7167 1.8841-3.0302 4.1563-3.8016 6.6754-.1182.3811.0417.7903.3822.9879l2.9607 1.7359c-.2989 1.6371-.2989 3.3165 0 4.9536l-2.9607 1.7359c-.3405.1976-.4934.6068-.3822.9879.7714 2.5121 2.0849 4.7842 3.8016 6.6754.2641.2893.695.3598 1.0286.1623l2.9607-1.7359c1.244 1.0867 2.6757 1.9264 4.2256 2.4768v3.4717c0 .3952.271.741.6533.8256 2.5506.5787 5.1638.5504 7.5894 0 .3822-.0846.6533-.4304.6533-.8256v-3.4717c1.5429-.5575 2.9746-1.3972 4.2256-2.4768l2.9607 1.7359c.3405.1975.7645.134 1.0286-.1623 1.7166-1.8841 3.0301-4.1563 3.8016-6.6754.1042-.3881-.0487-.7974-.3892-.995zm-16.0823 1.4325c-3.0649 0-5.56-2.5333-5.56-5.6452 0-3.1118 2.4951-5.6451 5.56-5.6451 3.065 0 5.56 2.5333 5.56 5.6451 0 3.1119-2.495 5.6452-5.56 5.6452z" fill="#B9FFE2"/></svg>