<svg width="75" height="76" fill="none" xmlns="http://www.w3.org/2000/svg"><mask id="a" maskUnits="userSpaceOnUse" x="0" y="5" width="75" height="69"><path d="M1.91487 46.6651L13.497 66.8046v-.0247c1.2621 2.1807 3.0726 3.9914 5.2508 5.2516 2.1782 1.2601 4.6479 1.9257 7.1627 1.9302h23.179c2.5149-.004 4.9848-.6694 7.1631-1.9296s3.9887-3.0712 5.2505-5.2522l11.582-20.1148C74.3397 44.4796 75 42.0023 75 39.4808c0-2.5215-.6603-4.9988-1.9149-7.1842l-11.582-20.1148c-1.2631-2.18321-3.0758-3.99561-5.2569-5.25595C54.0651 5.6655 51.5922 5.00141 49.0747 5H25.9105c-2.5148.0045-4.9845.67002-7.1627 1.93019-2.1782 1.26016-3.9887 3.07091-5.2508 5.25161L1.91487 32.2966C.660299 34.482 0 36.9593 0 39.4808c0 2.5215.660299 4.9988 1.91487 7.1843z" fill="#00DC82"/></mask><g mask="url(#a)"><path d="M1.91487 46.6651L13.497 66.8046v-.0247c1.2621 2.1807 3.0726 3.9914 5.2508 5.2516 2.1782 1.2601 4.6479 1.9257 7.1627 1.9302h23.179c2.5149-.004 4.9848-.6694 7.1631-1.9296s3.9887-3.0712 5.2505-5.2522l11.582-20.1148C74.3397 44.4796 75 42.0023 75 39.4808c0-2.5215-.6603-4.9988-1.9149-7.1842l-11.582-20.1148c-1.2631-2.18321-3.0758-3.99561-5.2569-5.25595C54.0651 5.6655 51.5922 5.00141 49.0747 5H25.9105c-2.5148.0045-4.9845.67002-7.1627 1.93019-2.1782 1.26016-3.9887 3.07091-5.2508 5.25161L1.91487 32.2966C.660299 34.482 0 36.9593 0 39.4808c0 2.5215.660299 4.9988 1.91487 7.1843z" fill="#00DC82"/><path opacity=".3" d="M-8.08513 46.6668L3.49695 66.8063v-.0247c1.26216 2.1807 3.07265 3.9914 5.25083 5.2516 2.17822 1.2601 4.64792 1.9257 7.16272 1.9302h23.179c2.5149-.004 4.9848-.6694 7.1631-1.9296s3.9887-3.0712 5.2505-5.2522l11.582-20.1148C64.3397 44.4813 65 42.004 65 39.4825c0-2.5215-.6603-4.9988-1.9149-7.1842l-11.582-20.1148c-1.2631-2.1832-3.0758-3.9956-5.2569-5.25594-2.1811-1.26035-4.654-1.92444-7.1715-1.92585H15.9105c-2.5148.00449-4.9845.67002-7.16272 1.93019-2.17818 1.26016-3.98867 3.0709-5.25083 5.2516L-8.08513 32.2983C-9.3397 34.4837-10 36.961-10 39.4825c0 2.5215.6603 4.9988 1.91487 7.1843z" fill="#fff"/></g><path d="M48.4688 27h-16.875c-1.3975 0-2.5313 1.1338-2.5313 2.5312v2.5313h-2.5313c-1.3974 0-2.5312 1.1338-2.5312 2.5313v16.875C24 52.8662 25.1338 54 26.5312 54h16.875c1.3975 0 2.5313-1.1338 2.5313-2.5312v-2.5313h2.5313c1.3974 0 2.5312-1.1338 2.5312-2.5313v-16.875C51 28.1338 49.8662 27 48.4688 27zm-5.0626 24.4688h-16.875V40.5h16.875v10.9688zm5.0626-5.0626h-2.5313V34.5938c0-1.3975-1.1338-2.5313-2.5313-2.5313H31.5938v-2.5313h16.875v16.875z" fill="#B9FFE2"/></svg>