<svg width="75" height="75" fill="none" xmlns="http://www.w3.org/2000/svg"><mask id="a" maskUnits="userSpaceOnUse" x="0" y="4" width="75" height="69"><path d="M1.91487 45.6651L13.497 65.8046v-.0247c1.2621 2.1807 3.0726 3.9914 5.2508 5.2516 2.1782 1.2601 4.6479 1.9257 7.1627 1.9302h23.179c2.5149-.004 4.9848-.6694 7.1631-1.9296s3.9887-3.0712 5.2505-5.2522l11.582-20.1148C74.3397 43.4796 75 41.0023 75 38.4808c0-2.5215-.6603-4.9988-1.9149-7.1842l-11.582-20.1148c-1.2631-2.18321-3.0758-3.99561-5.2569-5.25595C54.0651 4.6655 51.5922 4.00141 49.0747 4H25.9105c-2.5148.0045-4.9845.67002-7.1627 1.93019-2.1782 1.26016-3.9887 3.07091-5.2508 5.25161L1.91487 31.2966C.660299 33.482 0 35.9593 0 38.4808c0 2.5215.660299 4.9988 1.91487 7.1843z" fill="#00DC82"/></mask><g mask="url(#a)"><path d="M1.91487 45.6651L13.497 65.8046v-.0247c1.2621 2.1807 3.0726 3.9914 5.2508 5.2516 2.1782 1.2601 4.6479 1.9257 7.1627 1.9302h23.179c2.5149-.004 4.9848-.6694 7.1631-1.9296s3.9887-3.0712 5.2505-5.2522l11.582-20.1148C74.3397 43.4796 75 41.0023 75 38.4808c0-2.5215-.6603-4.9988-1.9149-7.1842l-11.582-20.1148c-1.2631-2.18321-3.0758-3.99561-5.2569-5.25595C54.0651 4.6655 51.5922 4.00141 49.0747 4H25.9105c-2.5148.0045-4.9845.67002-7.1627 1.93019-2.1782 1.26016-3.9887 3.07091-5.2508 5.25161L1.91487 31.2966C.660299 33.482 0 35.9593 0 38.4808c0 2.5215.660299 4.9988 1.91487 7.1843z" fill="#00DC82"/><path opacity=".3" d="M-8.08513 45.6668L3.49695 65.8063v-.0247c1.26216 2.1807 3.07265 3.9914 5.25083 5.2516 2.17822 1.2601 4.64792 1.9257 7.16272 1.9302h23.179c2.5149-.004 4.9848-.6694 7.1631-1.9296s3.9887-3.0712 5.2505-5.2522l11.582-20.1148C64.3397 43.4813 65 41.004 65 38.4825c0-2.5215-.6603-4.9988-1.9149-7.1842l-11.582-20.1148c-1.2631-2.1832-3.0758-3.9956-5.2569-5.25594-2.1811-1.26035-4.654-1.92444-7.1715-1.92585H15.9105c-2.5148.00449-4.9845.67002-7.16272 1.93019-2.17818 1.26016-3.98867 3.07091-5.25083 5.2516L-8.08513 31.2983C-9.3397 33.4837-10 35.961-10 38.4825c0 2.5215.6603 4.9988 1.91487 7.1843z" fill="#fff"/></g><path d="M34.1327 23.3796c0 .369.041.6971.164 1.0661.123.451.246.861.369 1.312.164.656-.328 1.271-.9841 1.271h-6.4371c-1.23 0-2.255.984-2.255 2.2551v6.3961c0 .656-.6151 1.1481-1.2301.9841-.451-.0821-.861-.2051-1.312-.3691-.574-.205-1.271-.246-1.968-.041-1.1891.287-2.0911 1.2301-2.3781 2.4191-.533 2.2551 1.107 4.2231 3.2801 4.2231.369 0 .738-.041 1.066-.164.451-.123.861-.246 1.312-.369.656-.164 1.2711.328 1.2711.984v6.3962c0 1.23.984 2.255 2.255 2.255h6.3961c.6561 0 1.1481.615.9841 1.23-.082.4511-.205.8611-.369 1.3121-.205.574-.246 1.271-.041 1.968.287 1.189 1.23 2.0911 2.419 2.3781 2.2551.574 4.2231-1.107 4.2231-3.2801 0-.369-.041-.697-.164-1.066-.123-.451-.246-.861-.369-1.3121-.164-.656.328-1.271.984-1.271h6.3962c1.23 0 2.255-.984 2.255-2.255v-6.3142c0-.656-.615-1.148-1.271-.984-.41.082-.779.205-1.1481.328-.328.123-.697.164-1.066.164-2.132 0-3.8131-2.009-3.28-4.2231.287-1.189 1.189-2.0911 2.378-2.4191.697-.164 1.353-.123 1.968.041.3691.123.7791.246 1.1481.3281.656.164 1.23-.3281 1.23-.9841v-6.3961c0-1.2301-.984-2.2551-2.255-2.2551h-6.3552c-.656 0-1.148-.615-.984-1.23.082-.451.205-.861.369-1.312.205-.5741.246-1.2711.041-1.9681-.287-1.189-1.23-2.091-2.4191-2.378-2.214-.5331-4.223 1.148-4.223 3.28z" fill="#B9FFE2"/></svg>