<svg width="75" height="75" fill="none" xmlns="http://www.w3.org/2000/svg"><mask id="a" maskUnits="userSpaceOnUse" x="0" y="4" width="75" height="69"><path d="M1.91487 45.6651L13.497 65.8046v-.0247c1.2621 2.1807 3.0726 3.9914 5.2508 5.2516 2.1782 1.2601 4.6479 1.9257 7.1627 1.9302h23.179c2.5149-.004 4.9848-.6694 7.1631-1.9296s3.9887-3.0712 5.2505-5.2522l11.582-20.1148C74.3397 43.4796 75 41.0023 75 38.4808c0-2.5215-.6603-4.9988-1.9149-7.1842l-11.582-20.1148c-1.2631-2.18321-3.0758-3.99561-5.2569-5.25595C54.0651 4.6655 51.5922 4.00141 49.0747 4H25.9105c-2.5148.0045-4.9845.67002-7.1627 1.93019-2.1782 1.26016-3.9887 3.07091-5.2508 5.25161L1.91487 31.2966C.660299 33.482 0 35.9593 0 38.4808c0 2.5215.660299 4.9988 1.91487 7.1843z" fill="#00DC82"/></mask><g mask="url(#a)"><path d="M1.91487 45.6651L13.497 65.8046v-.0247c1.2621 2.1807 3.0726 3.9914 5.2508 5.2516 2.1782 1.2601 4.6479 1.9257 7.1627 1.9302h23.179c2.5149-.004 4.9848-.6694 7.1631-1.9296s3.9887-3.0712 5.2505-5.2522l11.582-20.1148C74.3397 43.4796 75 41.0023 75 38.4808c0-2.5215-.6603-4.9988-1.9149-7.1842l-11.582-20.1148c-1.2631-2.18321-3.0758-3.99561-5.2569-5.25595C54.0651 4.6655 51.5922 4.00141 49.0747 4H25.9105c-2.5148.0045-4.9845.67002-7.1627 1.93019-2.1782 1.26016-3.9887 3.07091-5.2508 5.25161L1.91487 31.2966C.660299 33.482 0 35.9593 0 38.4808c0 2.5215.660299 4.9988 1.91487 7.1843z" fill="#00DC82"/><path opacity=".3" d="M-8.08513 45.6668L3.49695 65.8063v-.0247c1.26216 2.1807 3.07265 3.9914 5.25083 5.2516 2.17822 1.2601 4.64792 1.9257 7.16272 1.9302h23.179c2.5149-.004 4.9848-.6694 7.1631-1.9296s3.9887-3.0712 5.2505-5.2522l11.582-20.1148C64.3397 43.4813 65 41.004 65 38.4825c0-2.5215-.6603-4.9988-1.9149-7.1842l-11.582-20.1148c-1.2631-2.1832-3.0758-3.9956-5.2569-5.25594-2.1811-1.26035-4.654-1.92444-7.1715-1.92585H15.9105c-2.5148.00449-4.9845.67002-7.16272 1.93019-2.17818 1.26016-3.98867 3.07091-5.25083 5.2516L-8.08513 31.2983C-9.3397 33.4837-10 35.961-10 38.4825c0 2.5215.6603 4.9988 1.91487 7.1843z" fill="#fff"/><path d="M49.875 24h-25.75C22.3991 24 21 25.3991 21 27.125v25.75C21 54.6009 22.3991 56 24.125 56h25.75C51.6009 56 53 54.6009 53 52.875v-25.75C53 25.3991 51.6009 24 49.875 24z" fill="#000"/><path d="M49.875 24h-25.75C22.3991 24 21 25.3991 21 27.125v25.75C21 54.6009 22.3991 56 24.125 56h25.75C51.6009 56 53 54.6009 53 52.875v-25.75C53 25.3991 51.6009 24 49.875 24z" fill="#B9FFE2"/><path fill-rule="evenodd" clip-rule="evenodd" d="M40.8087 49.464v3.1288c.5086.2608 1.1102.4563 1.8047.5866.6945.1304 1.4264.1956 2.1959.1956.7499 0 1.4623-.0717 2.1373-.2151.6749-.1434 1.2667-.3797 1.7753-.7089.5087-.3291.9113-.7594 1.208-1.2906.2967-.5313.4451-1.188.4451-1.9701 0-.5672-.0847-1.0642-.2543-1.4911-.1696-.4269-.4141-.8066-.7336-1.1391-.3195-.3324-.7027-.6307-1.1494-.8947-.4466-.264-.9504-.5133-1.5112-.7479-.4108-.1695-.7792-.3341-1.1053-.4938-.3261-.1597-.6032-.3226-.8315-.4888-.2282-.1663-.4043-.3423-.5281-.528-.1239-.1858-.1859-.396-.1859-.6307 0-.2151.0554-.409.1663-.5818.1109-.1727.2674-.321.4695-.4448.2022-.1238.4499-.22.7434-.2885.2935-.0684.6195-.1026.9782-.1026.2608 0 .5363.0196.8265.0586.2902.0392.582.0995.8755.1809.2934.0815.5787.1842.8558.308.2772.1239.5331.2673.7679.4303v-2.9235c-.476-.1825-.9961-.3178-1.5602-.4058-.564-.088-1.2113-.132-1.9416-.132-.7434 0-1.4477.0799-2.1128.2396-.6651.1596-1.2504.409-1.7558.7479-.5054.339-.9048.7708-1.1982 1.2956-.2935.5246-.4402 1.152-.4402 1.8821 0 .9321.269 1.7274.807 2.3857.5379.6583 1.3547 1.2157 2.4502 1.672.4304.176.8315.3487 1.2032.5182.3717.1695.6928.3455.9634.528.2706.1825.4842.3813.6408.5964.1565.2151.2347.4595.2347.7333 0 .2021-.0489.3894-.1467.5622-.0978.1727-.2462.3226-.4451.4498-.1989.1271-.4467.2264-.7434.2981-.2967.0718-.6439.1076-1.0417.1076-.6782 0-1.3498-.1189-2.015-.3569-.6651-.2379-1.2814-.5947-1.8487-1.0706zm-5.26-7.7089h4.0138v-2.5676H28.375v2.5676h3.9941v11.4324h3.1796V41.7551z" fill="#00DC82"/></g></svg>