<svg width="75" height="75" fill="none" xmlns="http://www.w3.org/2000/svg"><mask id="a" maskUnits="userSpaceOnUse" x="0" y="4" width="75" height="69"><path d="M1.91487 45.6651L13.497 65.8046v-.0247c1.2621 2.1807 3.0726 3.9914 5.2508 5.2516 2.1782 1.2601 4.6479 1.9257 7.1627 1.9302h23.179c2.5149-.004 4.9848-.6694 7.1631-1.9296s3.9887-3.0712 5.2505-5.2522l11.582-20.1148C74.3397 43.4796 75 41.0023 75 38.4808c0-2.5215-.6603-4.9988-1.9149-7.1842l-11.582-20.1148c-1.2631-2.18321-3.0758-3.99561-5.2569-5.25595C54.0651 4.6655 51.5922 4.00141 49.0747 4H25.9105c-2.5148.0045-4.9845.67002-7.1627 1.93019-2.1782 1.26016-3.9887 3.07091-5.2508 5.25161L1.91487 31.2966C.660299 33.482 0 35.9593 0 38.4808c0 2.5215.660299 4.9988 1.91487 7.1843z" fill="#00DC82"/></mask><g mask="url(#a)"><path d="M1.91487 45.6651L13.497 65.8046v-.0247c1.2621 2.1807 3.0726 3.9914 5.2508 5.2516 2.1782 1.2601 4.6479 1.9257 7.1627 1.9302h23.179c2.5149-.004 4.9848-.6694 7.1631-1.9296s3.9887-3.0712 5.2505-5.2522l11.582-20.1148C74.3397 43.4796 75 41.0023 75 38.4808c0-2.5215-.6603-4.9988-1.9149-7.1842l-11.582-20.1148c-1.2631-2.18321-3.0758-3.99561-5.2569-5.25595C54.0651 4.6655 51.5922 4.00141 49.0747 4H25.9105c-2.5148.0045-4.9845.67002-7.1627 1.93019-2.1782 1.26016-3.9887 3.07091-5.2508 5.25161L1.91487 31.2966C.660299 33.482 0 35.9593 0 38.4808c0 2.5215.660299 4.9988 1.91487 7.1843z" fill="#00DC82"/><path opacity=".3" d="M-8.08513 45.6668L3.49695 65.8063v-.0247c1.26216 2.1807 3.07265 3.9914 5.25083 5.2516 2.17822 1.2601 4.64792 1.9257 7.16272 1.9302h23.179c2.5149-.004 4.9848-.6694 7.1631-1.9296s3.9887-3.0712 5.2505-5.2522l11.582-20.1148C64.3397 43.4813 65 41.004 65 38.4825c0-2.5215-.6603-4.9988-1.9149-7.1842l-11.582-20.1148c-1.2631-2.1832-3.0758-3.9956-5.2569-5.25594-2.1811-1.26035-4.654-1.92444-7.1715-1.92585H15.9105c-2.5148.00449-4.9845.67002-7.16272 1.93019-2.17818 1.26016-3.98867 3.07091-5.25083 5.2516L-8.08513 31.2983C-9.3397 33.4837-10 35.961-10 38.4825c0 2.5215.6603 4.9988 1.91487 7.1843z" fill="#fff"/></g><path d="M35.25 30.25l.875-1.75 1.75-.875-1.75-.875L35.25 25l-.875 1.75-1.75.875 1.75.875.875 1.75zm-7.875 3.5l1.458-2.9165 2.917-1.4585-2.917-1.4585L27.375 25l-1.458 2.9165L23 29.375l2.917 1.4585 1.458 2.9165zm19.25 7l-1.458 2.9165-2.917 1.4585 2.917 1.4585L46.625 49.5l1.458-2.9165L51 45.125l-2.917-1.4585-1.458-2.9165zm3.862-10.5968l-4.6402-4.6402c-.3413-.3424-.7891-.513-1.237-.513-.4479 0-.8958.1706-1.2376.513L23.513 45.3722c-.6836.6836-.6836 1.7915 0 2.4746l4.6402 4.6402c.3418.3418.7897.5125 1.237.5125.4479 0 .8958-.1707 1.2376-.5125L50.487 32.6273c.6836-.6825.6836-1.791 0-2.4741zm-7.8296 5.9735l-2.7841-2.7841 4.7359-4.736 2.7842 2.7842-4.736 4.7359z" fill="#B9FFE2"/></svg>