<svg width="106" height="128" fill="none" xmlns="http://www.w3.org/2000/svg"><path d="M14.3046 95.6165l-5.58851-34.42 11.17101 2.6642-5.5825 31.7558z" fill="#92ADAD"/><path d="M44.0282 30.4365L8.66948 61.4941l11.23562 4.199 24.1812-14.2057-.0581-21.0509z" fill="#B2CCCC"/><path d="M37.8022 122.777L14.3045 95.6164l5.3496-30.2675 24.2277-14.5034 23.5835 20.7704-1.5806 25.6735-28.0825 25.4876z" fill="#D1E2E2"/><path opacity=".65" d="M24.375 107.257l30.2012-46.808 11.7917 10.3852-.4832 26.4553-28.0825 25.4875-13.4272-15.52z" fill="#E6F0F0"/><path d="M43.8819 50.8455l.2395-21.0043 36.1537 39.8161-13.1074 1.9119-23.2858-20.7237z" fill="#E6F0F0"/><path d="M65.8218 97.4075l.4995-26.2757 13.9538-1.4744-14.4533 27.7501z" fill="#E6F0F0"/><path d="M100.307 66.8332l4.052-7.9454-2.929-.2246-1.123 8.17z" fill="#92ADAD"/><path d="M98.1642 48.6361l6.1828 10.328-3.065.1441-4.7778-5.3501 1.66-5.122z" fill="#B2CCCC"/><path d="M92.4606 71.6104l7.8464-4.7773 1.063-7.7893-4.7659-5.4262-7.3672 3.2142-1.6224 6.3759 4.8461 8.4027z" fill="#D1E2E2"/><path opacity=".65" d="M96.9441 68.8807l-3.6952-13.7604-3.6836 1.6071-1.9508 6.4805 4.8461 8.4027 4.4835-2.7299z" fill="#E6F0F0"/><path d="M96.6041 53.6174l1.5839-5.1339-11.9175 6.8697 3.0426 1.4904 7.291-3.2262z" fill="#E6F0F0"/><path d="M87.6384 63.0555l1.915-6.252-3.2829-1.4501 1.3679 7.7021z" fill="#E6F0F0"/><path d="M26.98 31.8884l6.4587-12.664-4.6682-.3581L26.98 31.8884z" fill="#92ADAD"/><path d="M23.5653 2.88364l9.8544 16.46166-4.8845.2297-7.6158-8.5275 2.6459-8.16386z" fill="#B2CCCC"/><path d="M14.4743 39.5025l12.5056-7.6145 1.6955-12.4153-7.5968-8.6488-11.74257 5.1232-2.58591 10.1624 7.72418 13.393z" fill="#D1E2E2"/><path opacity=".65" d="M21.6204 35.1517L15.7307 13.219l-5.87127 2.5617-3.1093 10.329 7.72417 13.3931 7.1461-4.3511z" fill="#E6F0F0"/><path d="M21.0787 10.8241l2.5246-8.18286L4.60797 13.5908l4.84952 2.3755 11.62121-5.1422z" fill="#E6F0F0"/><path d="M6.78819 25.8666l3.0523-9.965-5.23255-2.3112 2.18025 12.2762z" fill="#E6F0F0"/></svg>
