<svg width="106" height="128" viewBox="0 0 106 128" fill="none" xmlns="http://www.w3.org/2000/svg">
<path opacity="0.8" d="M14.3381 95.618L8.68323 61.5062L20.0001 65.6829L14.3381 95.618Z" fill="#009A5B"/>
<path opacity="0.7" d="M44.1154 30.437L8.69283 61.4951L19.9488 65.6942L44.1154 50.8801L44.1154 30.437Z" fill="#00BB6F"/>
<path opacity="0.7" d="M37.8781 122.779L14.3381 95.618L20.0001 65.6698L43.9688 50.8463L67.5948 71.617L66.0113 97.291L37.8781 122.779Z" fill="#00DC82"/>
<path opacity="0.65" d="M24.4267 107.259L54.6824 60.4499L66.4954 70.8353L66.0113 97.2911L37.8781 122.779L24.4267 107.259Z" fill="#80EEC0"/>
<path d="M43.9688 50.8463L44.1154 30.4871L80.4277 69.6585L67.2966 71.5704L43.9688 50.8463Z" fill="#40E5A1"/>
<path d="M65.9483 97.4091L66.4487 71.133L80.4277 69.6585L65.9483 97.4091Z" fill="#80EEC0"/>
<path d="M100.495 66.8344L104.555 58.8889L101.621 58.6643L100.495 66.8344Z" fill="#009A5B"/>
<path d="M98.3491 48.6369L104.543 58.9651L101.473 59.1092L96.6861 53.759L98.3491 48.6369Z" fill="#00BB6F"/>
<path d="M92.6353 71.6117L100.495 66.8343L101.561 59.0449L96.7862 53.6185L89.4057 56.8329L87.7804 63.2088L92.6353 71.6117Z" fill="#00DC82"/>
<path opacity="0.65" d="M97.1268 68.8819L93.425 55.1212L89.7347 56.7284L87.7805 63.209L92.6353 71.6118L97.1268 68.8819Z" fill="#80EEC0"/>
<path d="M96.7863 53.6185L98.373 48.4845L86.434 55.3543L89.482 56.8447L96.7863 53.6185Z" fill="#40E5A1"/>
<path d="M87.8043 63.0566L89.7228 56.8045L86.434 55.3544L87.8043 63.0566Z" fill="#80EEC0"/>
<path d="M27.0365 31.889L33.5068 19.2247L28.8302 18.8667L27.0365 31.889Z" fill="#009A5B"/>
<path d="M23.6156 2.88373L33.4878 19.3457L28.5944 19.5754L20.9649 11.0477L23.6156 2.88373Z" fill="#00BB6F"/>
<path d="M14.5082 39.5033L27.0364 31.8886L28.7349 19.4731L21.1244 10.8241L9.36066 15.9474L6.77008 26.11L14.5082 39.5033Z" fill="#00DC82"/>
<path opacity="0.65" d="M21.6672 35.1523L15.7669 13.2193L9.88501 15.7809L6.77009 26.1102L14.5082 39.5035L21.6672 35.1523Z" fill="#80EEC0"/>
<path d="M21.1245 10.8242L23.6536 2.64124L4.62403 13.591L9.4823 15.9666L21.1245 10.8242Z" fill="#40E5A1"/>
<path d="M6.80824 25.8671L9.86605 15.9019L4.62405 13.5906L6.80824 25.8671Z" fill="#80EEC0"/>
</svg>
