<svg width="100" height="120" fill="none" xmlns="http://www.w3.org/2000/svg"><path d="M3.20031 118.798l-.65972-8C.905751 90.976 6.71358 71.2555 18.8312 55.4833l6.3712-8.2927 21.8882-13.1972c3.0328-1.8287 6.9537-1.1041 9.1326 1.6877l8.9831 11.5095 6.0005 21.2021v14.0022c0 3.2918-1.4742 6.4106-4.0178 8.5L37.6036 115.197l-34.40329 3.601z" fill="#D1E2E2"/><path opacity=".75" d="M38.4038 74.7933L25.2025 47.1906l22.9887-13.6599c2.6271-1.5611 6.0078-.8981 7.8509 1.5395l9.1642 12.1204 5.2005 18.8018-32.003 8.8009z" fill="#E6F0F0"/><path opacity=".75" d="M27.6027 98.3958l11.6011-22.8022-14.0014-28.4027L2.78597 76.7237C.992496 79.0865.137751 82.0299.386671 84.9858L3.20031 118.398 27.6027 98.3958z" fill="#B2CCCC"/><path opacity=".75" d="M27.6027 98.7955L2.80029 118.797l34.40331-3.6-9.6009-8.001v-8.4005z" fill="#E6F0F0"/><path d="M34.3869 24.5135l-6.6238 7.4645c-5.2998-4.9153-8.5786-11.6286-9.1968-18.8304l-.0599-.6988.8964-3.03193c.9713-3.28496 4.243-5.327 7.6207-4.75646l5.4054 3.34582.2295.25105c2.2214 2.42922 3.2381 5.72572 2.771 8.98412l-1.0425 7.2721z" fill="#B2CCCC"/><path opacity=".75" d="M26.6909 15.7552l-8.1846-3.3066 1.1287-3.7291c.8853-2.9249 3.8275-4.71709 6.8326-4.16195l.5558.10266 4.7677 2.99056-5.1002 8.10443z" fill="#E6F0F0"/><path opacity=".75" d="M28.9865 22.8834L27.0171 15.77l-8.5107-3.3212.6776 7.3872c.271 2.954 1.6265 5.7029 3.8049 7.7163l4.6963 4.3406 1.3013-9.0095z" fill="#D1E2E2"/><path opacity=".75" d="M29.0643 22.9685l-1.3864 9.0873 6.6237-7.4645-3.6018.1658-1.6355-1.7886z" fill="#E6F0F0"/><path d="M94.8639 82.4685l4.4655 5.0443c-3.7238 3.1532-8.4887 4.8063-13.3652 4.6367l-.4733-.0165-1.9592-.8465c-2.1227-.9173-3.226-3.2755-2.5698-5.4928l2.6805-3.3513c1.9264-1.3763 4.368-1.8175 6.6542-1.2025l4.5673 1.2286z" fill="#B2CCCC"/><path opacity=".75" d="M88.3705 86.9161l-2.8796 5.217-2.0583-.9052c-2.0873-.9179-3.1512-3.2579-2.4707-5.4342l2.3908-2.9528 5.0178 4.0752z" fill="#E6F0F0"/><path opacity=".75" d="M93.3335 85.9555l-4.9269.7431-2.9158 5.4344 3.509.1015c2.9651.0858 5.857-.9298 8.1174-2.8506l2.1487-1.8259-5.9324-1.6025z" fill="#D1E2E2"/><path opacity=".75" d="M93.3968 85.9103l5.9777 1.6659-4.4655-5.0443-.1809 2.4273-1.3313.9511z" fill="#E6F0F0"/></svg>
