<svg width="116" height="120" fill="none" xmlns="http://www.w3.org/2000/svg"><path d="M13.5421 78.4523c-2.0819-4.7669-.5268-15.5339.511-20.3216 4.7681-8.8298 7.8197-12.4476 8.7495-13.1528l21.7681-17.0995c3.0815-.2139 9.6812-.5013 11.4285.0607 1.7473.562 6.4088 5.6765 8.5211 8.1635l6.5571 28.319-.0703 10.5216-3.776 11.7398c-7.2401 7.2113-22.2938 22.293-24.5878 24.929-2.294 2.637-5.1752 2.353-6.329 1.881l-10.4721-3.971c-3.2325-8.37-10.2181-26.3029-12.3001-31.0697z" fill="#D1E2E2"/><path opacity=".5" d="M41.9811 57.4731L27.693 70.0495l6.0335 13.0874 13.2439-8.3933-4.9893-17.2705z" fill="#E6F0F0"/><path opacity=".8" d="M12.6606 68.5563l1.4806-10.6984 15.6387 12.2604 5.0197 11.5562-8.9571 27.8475-11.8387-29.8359c-1.4013-3.5317-1.8641-7.3661-1.3432-11.1298z" fill="#B2CCCC"/><path opacity=".8" d="M45.6931 74.0314L41.4638 60.018l8.3423-25.9368 14.7143 2.0214 6.5571 28.319-3.776 11.7398-21.6084-2.13z" fill="#D1E2E2"/><path opacity=".8" d="M19.1693 50.0223l-5.0281 7.8355L29.692 70.3912 41.649 60.379l8.3424-25.9368-5.4204-6.5637-18.4663 14.512c-2.7217 2.1389-5.0659 4.7185-6.9354 7.6318z" fill="#E6F0F0"/><path d="M49.7183 34.3543l-5.1474-6.4758 5.0105-.325c4.2251-.274 8.3473 1.3788 11.2128 4.4958l3.7262 4.0534-14.8021-1.7484zM25.8425 109.523l8.6841-27.9362 10.8936-7.6429 21.9693 1.9447 3.6882-11.4668-.0703 10.5217-3.776 11.7398-24.2092 24.7257c-1.923 1.964-4.8173 2.621-7.3996 1.679l-9.7801-3.565z" fill="#B2CCCC"/><path d="M108.919 32.316c-.191-1.5584-2.249-4.1174-3.254-5.2021-2.595-1.5622-3.943-2.0336-4.293-2.0741l-8.283-1.1002c-.8335.4177-2.5926 1.3566-2.9604 1.771-.3677.4144-.7935 2.4593-.9604 3.4299l2.6453 8.3658 1.6342 2.7233 2.7841 2.4707c2.9889.7619 9.2172 2.369 10.2182 2.7017 1.001.3328 1.706-.1835 1.933-.4833l2.111-2.6401c-.445-2.6715-1.384-8.4042-1.575-9.9626z" fill="#D1E2E2"/><path d="M98.3073 31.2321l5.6447 1.0736.442 4.3274-4.7308-.147-1.3559-5.254z" fill="#E6F0F0"/><path opacity=".8" d="M110.494 42.2786l-.999-6.3508c-.51-3.2439-1.852-6.3002-3.895-8.8714l-2.18 5.5877.47 3.7738 6.604 5.8607z" fill="#92ADAD"/><path opacity=".8" d="M99.8856 36.1048l-1.0531-4.2909-6.1511-5.4585-3.5131 2.785 2.6453 8.3658 2.7842 2.4707 5.2878-3.8721z" fill="#B2CCCC"/><path opacity=".8" d="M93.0892 23.9395l4.2416.5643c2.8802.3831 5.6752 1.2459 8.2702 2.5525l-2.116 5.6451-4.6452-.7654-6.1511-5.4585.4005-2.538z" fill="#D1E2E2"/><path d="M92.7461 26.4129l.343-2.4733c-1.9949 1.0109-3.4251 2.8703-3.8904 5.0578l-.0305.1431 3.5779-2.7276zM110.495 42.2787l-6.547-5.9254-4.0048-.313-5.4101 3.8793-2.7194-2.4132 1.6341 2.7233 2.7842 2.4707 7.053 1.8927c2.649.7108 5.469-.1945 7.21-2.3144z" fill="#B2CCCC"/><path d="M14.1978 13.706c.1911-1.5584 2.2488-4.1174 3.2538-5.2021 2.5951-1.56216 3.9436-2.0336 4.2935-2.07405l8.2826-1.10021c.8336.41765 2.5927 1.35656 2.9604 1.77095.3678.41439.7936 2.45929.9605 3.42991l-2.6453 8.3658-1.6342 2.7233-2.7842 2.4707c-2.9888.7619-9.2168 2.369-10.2178 2.7017-1.0009.3328-1.706-.1835-1.9334-.4832l-2.1114-2.6402c.4456-2.6715 1.3844-8.4042 1.5755-9.9626z" fill="#D1E2E2"/><path d="M24.8095 12.6221l-5.6442 1.0737-.4422 4.3274 4.7305-.1471 1.3559-5.254z" fill="#E6F0F0"/><path opacity=".8" d="M12.6223 23.6686l.9992-6.3508c.5104-3.2438 1.8522-6.3002 3.8948-8.87139l2.1808 5.58769-.4704 3.7738-6.6044 5.8607z" fill="#92ADAD"/><path opacity=".8" d="M23.2311 17.4949l1.0532-4.291 6.1511-5.45851 3.5131 2.78511-2.6453 8.3657-2.7842 2.4707-5.2879-3.872z" fill="#B2CCCC"/><path opacity=".8" d="M30.0276 5.32947l-4.2416.56433c-2.8798.38314-5.6751 1.2459-8.2698 2.55248l2.116 5.64512 4.6447-.7654 6.1512-5.45848-.4005-2.53805z" fill="#D1E2E2"/><path d="M30.3707 7.80294l-.343-2.4733c1.9949 1.01089 3.4251 2.87028 3.8904 5.05776l.0304.1431-3.5778-2.72756zM12.6221 23.6687l6.5469-5.9254 4.0046-.313 5.4101 3.8793 2.7194-2.4132-1.6342 2.7233-2.7842 2.4707-7.0534 1.8927c-2.649.7108-5.4689-.1944-7.2092-2.3144z" fill="#B2CCCC"/></svg>
