<svg width="103" height="115" viewBox="0 0 103 115" fill="none" xmlns="http://www.w3.org/2000/svg">
<g opacity="0.8">
<path d="M49.1119 28.1209L30.9546 42.6782C29.1607 44.5934 12.313 58.288 11.3891 59.0494L25.1203 63.0326L50.7246 27.5163C50.1486 27.5225 49.5816 27.735 49.1119 28.1209Z" fill="#00DC82"/>
<path d="M53.117 29.2853C52.753 28.2021 51.8042 27.5017 50.7243 27.5189L24.5067 62.7756L36.9438 66.3834L68.6523 75.5815L53.117 29.2853Z" fill="#33E39B"/>
<path opacity="0.75" d="M68.6213 75.5184L47.651 69.4353L25.0039 62.8658L36.36 46.8404L43.976 36.4873L60.8757 52.4372L68.6213 75.5184Z" fill="#99F1CD"/>
<path d="M27.066 105.034L19.4011 82.9858C18.8963 80.4038 11.8833 59.7876 11.5042 58.6482L25.2354 62.6314L28.1111 106.409C27.6269 106.096 27.2594 105.612 27.066 105.034Z" fill="#00DC82"/>
<path d="M31.0723 106.194C30.1909 106.915 29.0171 107 28.112 106.407L24.5799 62.5205L37.0169 66.1283L68.7254 75.3264L31.0723 106.194Z" fill="#33E39B"/>
<path opacity="0.75" d="M68.6659 75.3633L47.6956 69.2802L24.5428 62.564L26.1794 82.3583L27.1466 95.2012L49.8934 90.7521L68.6659 75.3633Z" fill="#99F1CD"/>
</g>
<g opacity="0.8">
<path d="M84.3174 41.8346L83.0782 48.6368C83.048 49.4153 81.9343 55.7686 81.8753 56.1193L85.7107 54.322L84.5606 41.3841C84.4332 41.4982 84.3477 41.6566 84.3174 41.8346Z" fill="#00DC82"/>
<path d="M85.4366 41.3108C85.1459 41.1402 84.7987 41.1695 84.5609 41.3846L85.524 54.3845L88.998 52.7565L97.8549 48.6061L85.4366 41.3108Z" fill="#33E39B"/>
<path opacity="0.75" d="M97.8358 48.5984L91.9783 51.3433L85.6525 54.3077L85.0896 48.5085L84.7883 44.7073L91.6445 44.9614L97.8358 48.5984Z" fill="#99F1CD"/>
<path d="M94.2652 63.3181L88.2916 59.8959C87.6798 59.4183 82.1286 56.1882 81.8237 56.008L85.6591 54.2107L94.7644 63.4206C94.5956 63.4454 94.4201 63.4093 94.2652 63.3181Z" fill="#00DC82"/>
<path d="M95.3838 62.793C95.3265 63.1266 95.0809 63.3751 94.7642 63.4198L85.4913 54.314L88.9653 52.6861L97.8222 48.5356L95.3838 62.793Z" fill="#33E39B"/>
<path opacity="0.75" d="M97.8158 48.5554L91.9583 51.3003L85.4912 54.3308L89.6833 58.4293L92.382 61.1071L96.6 55.6635L97.8158 48.5554Z" fill="#99F1CD"/>
</g>
<g opacity="0.8">
<path d="M32.1908 5.28835L25.6212 7.32487C24.9209 7.65754 18.805 9.59875 18.4684 9.70808L21.8248 12.2998L32.7003 5.29721C32.5409 5.23624 32.3618 5.23313 32.1908 5.28835Z" fill="#00DC82"/>
<path d="M33.1696 6.04494C33.1857 5.70679 32.9995 5.41052 32.7 5.29777L21.6834 12.1621L24.7234 14.5096L32.4739 20.4945L33.1696 6.04494Z" fill="#33E39B"/>
<path opacity="0.75" d="M32.472 20.4739L27.3462 16.5158L21.8106 12.2413L26.6635 9.06019L29.8757 7.03547L32.8188 13.27L32.472 20.4739Z" fill="#99F1CD"/>
<path d="M17.8457 24.0883L18.1035 17.1777C18.242 16.4111 18.5255 9.96607 18.5435 9.6108L21.8998 12.2026L17.9859 24.5811C17.8861 24.4419 17.8368 24.2687 17.8457 24.0883Z" fill="#00DC82"/>
<path d="M18.8253 24.8437C18.5047 24.9468 18.1721 24.8424 17.9865 24.5805L21.7312 12.1006L24.7711 14.4482L32.5214 20.4333L18.8253 24.8437Z" fill="#33E39B"/>
<path opacity="0.75" d="M32.5011 20.4369L27.3755 16.4787L21.7163 12.1084L20.0393 17.742L18.9252 21.3869L25.6728 22.6356L32.5011 20.4369Z" fill="#99F1CD"/>
</g>
</svg>
