<svg width="100" height="120" viewBox="0 0 100 120" fill="none" xmlns="http://www.w3.org/2000/svg">
<path d="M3.21728 119.903L2.52213 111.441C0.898807 91.6797 6.67174 72.0198 18.7214 56.2736L25.3361 47.6298L47.3544 34.3012C50.3924 32.4621 54.3262 33.1894 56.5058 35.9932L65.552 47.6298L71.5844 69.0292V83.2233C71.5844 86.5075 70.1169 89.62 67.5831 91.7096L37.803 116.269L3.21728 119.903Z" fill="#34CE8F" fill-opacity="0.7"/>
<path opacity="0.75" d="M38.6074 75.4894L25.3361 47.6298L48.4589 33.8354C51.0906 32.2655 54.4823 32.9308 56.3258 35.3787L65.5521 47.6298L70.7802 66.6066L38.6074 75.4894Z" fill="#80EEC0"/>
<path opacity="0.75" d="M27.749 99.3116L39.4116 76.2972L25.3361 47.6301L2.76962 77.479C0.986275 79.8378 0.136693 82.7721 0.383856 85.7188L3.21728 119.5L27.749 99.3116Z" fill="#00DC82" fill-opacity="0.6"/>
<path opacity="0.75" d="M27.749 99.7152L2.81512 119.903L37.4008 116.269L27.749 108.194V99.7152Z" fill="#80EEC0"/>
<path d="M34.5691 24.7415L27.9102 32.2755C22.5822 27.3144 19.2861 20.5383 18.6646 13.2684L18.6044 12.5645L19.5054 9.50512C20.4819 6.18945 23.7714 4.12786 27.1667 4.70366L32.6007 8.08062L32.8585 8.36365C35.0746 10.7968 36.0888 14.0987 35.6227 17.3631L34.5691 24.7415Z" fill="#34CE8F"/>
<path opacity="0.75" d="M26.8323 15.9019L18.6043 12.5644L19.7497 8.76518C20.6336 5.83351 23.5712 4.03677 26.5709 4.59311L27.1666 4.7036L31.9596 7.72199L26.8323 15.9019Z" fill="#80EEC0"/>
<path opacity="0.75" d="M29.1402 23.0964L27.1604 15.9168L18.6045 12.5646L19.2889 20.0557C19.5593 23.0146 20.9114 25.7678 23.0845 27.7843L27.832 32.1897L29.1402 23.0964Z" fill="#00DC82"/>
<path opacity="0.75" d="M29.2184 23.1822L27.8246 32.3541L34.4835 24.8201L30.8626 24.9874L29.2184 23.1822Z" fill="#80EEC0"/>
<path d="M95.3669 83.2361L99.8561 88.3273C96.1128 91.5097 91.3233 93.1784 86.4235 93.0073L85.9442 92.9906L83.9729 92.1354C81.8392 91.2097 80.7313 88.8309 81.3912 86.5922L84.0859 83.2097C86.0224 81.8207 88.4762 81.3751 90.7726 81.9953L95.3669 83.2361Z" fill="#34CE8F"/>
<path opacity="0.75" d="M88.8391 87.725L85.9442 92.9906L83.8732 92.0762C81.7752 91.1499 80.7069 88.7894 81.3912 86.5922L83.7946 83.6119L88.8391 87.725Z" fill="#80EEC0"/>
<path opacity="0.75" d="M93.8284 86.7556L88.8754 87.5056L85.9441 92.9906L89.4995 93.0939C92.4622 93.1799 95.3529 92.1604 97.6126 90.2326L99.7923 88.373L93.8284 86.7556Z" fill="#00DC82"/>
<path opacity="0.75" d="M93.892 86.7099L99.9014 88.3913L95.4122 83.3001L95.2304 85.7499L93.892 86.7099Z" fill="#80EEC0"/>
</svg>
