<svg width="116" height="120" viewBox="0 0 116 120" fill="none" xmlns="http://www.w3.org/2000/svg">
<path d="M13.5378 78.4522C11.4565 73.6853 13.0111 62.9183 14.0486 58.1306C18.8152 49.3007 21.8658 45.683 22.7953 44.9778L44.5565 27.8783C47.637 27.6643 54.2346 27.377 55.9813 27.939C57.7281 28.501 62.388 33.6155 64.4997 36.1025L71.0547 64.4215L70.9844 74.9431L67.2096 86.6829C59.9718 93.8942 44.9229 108.976 42.6297 111.612C40.3364 114.248 37.4562 113.964 36.3027 113.493L25.834 109.522C22.6024 101.152 15.6191 83.219 13.5378 78.4522Z" fill="#40E5A1"/>
<path opacity="0.5" d="M41.9675 57.473L27.684 70.0494L33.7156 83.1368L46.9552 74.7435L41.9675 57.473Z" fill="#80EEC0"/>
<path opacity="0.5" d="M12.6561 68.5571L14.1364 57.858L29.77 70.1184L34.7881 81.6747L25.8339 109.523L13.999 79.686C12.5981 76.1544 12.1355 72.3204 12.6561 68.5571Z" fill="#00BB6F"/>
<path opacity="0.8" d="M45.6783 74.0314L41.4504 60.018L49.7901 34.0812L64.4997 36.1026L71.0547 64.4215L67.2799 76.1614L45.6783 74.0314Z" fill="#00DC82"/>
<path opacity="0.5" d="M19.1632 50.0217L14.1364 57.8577L29.6823 70.3911L41.6355 60.3789L49.9752 34.4421L44.5565 27.8784L26.0959 42.3906C23.3752 44.5293 21.0319 47.1087 19.1632 50.0217Z" fill="#40E5A1"/>
<path opacity="0.3" d="M49.7022 34.3542L44.5564 27.8784L49.5619 27.5536C53.7877 27.2794 57.9108 28.9331 60.7767 32.0516L64.4996 36.1026L49.7022 34.3542Z" fill="#00DC82"/>
<path opacity="0.6" d="M25.834 109.522L34.5153 81.5866L45.4054 73.9437L67.3677 75.8885L71.0547 64.4217L70.9844 74.9433L67.2096 86.6831L43.0088 111.408C41.0861 113.373 38.1917 114.03 35.6091 113.088L25.834 109.522Z" fill="#34CE8F"/>
<path d="M108.884 32.3159C108.693 30.7575 106.636 28.1985 105.631 27.1138C103.037 25.5516 101.689 25.0802 101.339 25.0397L93.0589 23.9395C92.2256 24.3572 90.4671 25.2961 90.0995 25.7105C89.7319 26.1248 89.3062 28.1697 89.1393 29.1404L91.7838 37.5062L93.4174 40.2294L96.2007 42.7001C99.1886 43.4621 105.415 45.0692 106.415 45.4019C107.416 45.7346 108.121 45.2184 108.348 44.9186L110.459 42.2785C110.013 39.607 109.075 33.8743 108.884 32.3159Z" fill="#40E5A1"/>
<path d="M98.2757 31.2325L103.918 32.3063L104.36 36.6339L99.6313 36.4868L98.2757 31.2325Z" fill="#80EEC0"/>
<path opacity="0.8" d="M110.46 42.2795L109.461 35.9284C108.95 32.6844 107.609 29.6279 105.567 27.0566L103.387 32.6445L103.857 36.4185L110.46 42.2795Z" fill="#00BB6F"/>
<path opacity="0.8" d="M99.8536 36.1054L98.8007 31.8143L92.6512 26.3555L89.1391 29.1407L91.7838 37.5068L94.5672 39.9777L99.8536 36.1054Z" fill="#00DC82"/>
<path opacity="0.8" d="M93.059 23.9396L97.2994 24.504C100.178 24.8872 102.973 25.75 105.567 27.0566L103.452 32.702L98.8081 31.9366L92.6586 26.4778L93.059 23.9396Z" fill="#40E5A1"/>
<path d="M92.716 26.4131L93.0589 23.9397C91.0646 24.9506 89.6348 26.8101 89.1696 28.9976L89.1392 29.1408L92.716 26.4131Z" fill="#00DC82"/>
<path d="M110.46 42.2798L103.915 36.354L99.9112 36.041L94.5026 39.9205L91.7839 37.5071L93.4176 40.2305L96.2011 42.7014L103.252 44.5941C105.901 45.305 108.72 44.3998 110.46 42.2798Z" fill="#34CE8F"/>
<path d="M14.1931 13.7058C14.3841 12.1474 16.4412 9.58836 17.4458 8.50366C20.0401 6.94149 21.3882 6.47006 21.738 6.42961L30.018 5.32939C30.8513 5.74705 32.6098 6.68596 32.9774 7.10035C33.345 7.51474 33.7707 9.55964 33.9376 10.5303L31.2931 18.8961L29.6595 21.6193L26.8762 24.09C23.8883 24.852 17.6623 26.459 16.6616 26.7918C15.661 27.1245 14.9561 26.6082 14.7288 26.3085L12.6181 23.6684C13.0635 20.9969 14.0021 15.2642 14.1931 13.7058Z" fill="#40E5A1"/>
<path d="M24.8012 12.6226L19.1585 13.6963L18.7165 18.0239L23.4457 17.8768L24.8012 12.6226Z" fill="#80EEC0"/>
<path opacity="0.8" d="M12.6173 23.6695L13.6163 17.3184C14.1266 14.0744 15.468 11.018 17.51 8.44666L19.6902 14.0345L19.2199 17.8085L12.6173 23.6695Z" fill="#00BB6F"/>
<path opacity="0.8" d="M23.2233 17.4955L24.2762 13.2043L30.4257 7.74554L33.9378 10.5307L31.2931 18.8969L28.5097 21.3677L23.2233 17.4955Z" fill="#00DC82"/>
<path opacity="0.8" d="M30.018 5.32953L25.7775 5.8939C22.8986 6.27707 20.104 7.13988 17.51 8.44653L19.6254 14.0919L24.2689 13.3265L30.4183 7.86768L30.018 5.32953Z" fill="#40E5A1"/>
<path d="M30.3608 7.80309L30.0179 5.32969C32.0123 6.34061 33.4421 8.20007 33.9072 10.3876L33.9377 10.5308L30.3608 7.80309Z" fill="#00DC82"/>
<path d="M12.6171 23.6698L19.1623 17.744L23.1657 17.431L28.5743 21.3105L31.293 18.8972L29.6593 21.6205L26.8758 24.0914L19.8244 25.9842C17.1761 26.6951 14.3569 25.7898 12.6171 23.6698Z" fill="#34CE8F"/>
</svg>
