<svg width="103" height="115" fill="none" xmlns="http://www.w3.org/2000/svg"><g opacity=".8"><path d="M49.4374 28.2094L31.1183 42.8089c-1.8098 1.9208-18.8077 15.6551-19.7399 16.4187l13.8536 3.9947 25.8325-35.6192c-.5812.0062-1.1532.2193-1.6271.6063z" fill="#B2CCCC"/><path d="M53.4782 29.3771c-.3673-1.0864-1.3245-1.7888-2.414-1.7716L24.613 62.9645l12.5479 3.6182 31.991 9.2248-15.6737-46.4304z" fill="#D1E2E2"/><path d="M69.1206 75.7448L47.9635 69.644l-22.849-6.5886 11.4574-16.0717 7.6838-10.3831L61.306 52.5967l7.8146 23.1481z" fill="#E6F0F0"/><path d="M27.1948 105.345l-7.7332-22.1121c-.5092-2.5895-7.5848-23.2654-7.9672-24.4081l13.8535 3.9947 2.9014 43.9045c-.4886-.314-.8594-.799-1.0545-1.379z" fill="#B2CCCC"/><path d="M31.2369 106.508c-.8894.724-2.0736.809-2.9867.214l-3.5637-44.0136 12.5479 3.6182 31.991 9.2248-37.9885 30.9566z" fill="#D1E2E2"/><path d="M69.1655 75.5878L48.0084 69.487l-23.3591-6.7357 1.6512 19.8517.9758 12.8802 22.9495-4.462 18.9397-15.4334z" fill="#E6F0F0"/></g><path d="M84.9565 41.9629l-1.2502 6.8221c-.0305.7808-1.154 7.1528-1.2135 7.5045l3.8696-1.8025-1.1606-12.9759c-.1285.1144-.2148.2732-.2453.4518z" fill="#B2CCCC"/><path d="M86.0857 41.4374c-.2933-.1711-.6436-.1417-.8835.0741l.9719 13.0381 3.5049-1.6327 8.936-4.1625-12.5293-7.317z" fill="#D1E2E2"/><path opacity=".75" d="M98.5957 48.7467l-5.9098 2.7529-6.3823 2.973-.568-5.8163-.304-3.8124 6.9175.255 6.2466 3.6478z" fill="#E6F0F0"/><path d="M94.9929 63.5085l-6.0269-3.4323c-.6173-.479-6.2181-3.7187-6.5258-3.8994l3.8697-1.8026 9.1867 9.2372c-.1703.0248-.3474-.0114-.5037-.1029z" fill="#B2CCCC"/><path d="M96.1213 62.982c-.0577.3346-.3055.5839-.625.6287l-9.3558-9.1327 3.5049-1.6327 8.9359-4.1625-2.46 14.2992z" fill="#D1E2E2"/><path opacity=".75" d="M98.5751 48.7024l-5.9097 2.7529-6.5248 3.0394 4.2295 4.1106 2.7229 2.6857 4.2556-5.4596 1.2265-7.129z" fill="#E6F0F0"/><path d="M32.3656 5.31079l-6.6281 2.04254c-.7066.33366-6.877 2.28061-7.2165 2.39026l3.3862 2.59941 10.9724-7.02333c-.1608-.06115-.3415-.06427-.514-.00888z" fill="#B2CCCC"/><path d="M33.3531 6.06957c.0163-.33915-.1715-.6363-.4737-.74938L21.7646 12.2049l3.0671 2.3544 7.8196 6.0026.7018-14.49233z" fill="#D1E2E2"/><path opacity=".75" d="M32.6493 20.5412l-5.1715-3.9698-5.585-4.2873 4.8962-3.19043 3.2408-2.0307 2.9693 6.25293-.3498 7.2253z" fill="#E6F0F0"/><path d="M17.8925 24.1646l.2602-6.9308c.1397-.7688.4258-7.2328.444-7.58908l3.3862 2.59938-3.949 12.4148c-.1006-.1396-.1503-.3133-.1414-.4943z" fill="#B2CCCC"/><path d="M18.8809 24.9224c-.3234.1034-.659-.0013-.8464-.264l3.7783-12.5165 3.0671 2.3545 7.8196 6.0026-13.8186 4.4234z" fill="#D1E2E2"/><path opacity=".75" d="M32.679 20.5026l-5.1715-3.9698-5.7097-4.383-1.692 5.6501-1.1241 3.6555 6.8079 1.2524 6.8894-2.2052z" fill="#E6F0F0"/></svg>