<svg width="1440" height="189" fill="none" xmlns="http://www.w3.org/2000/svg"><path d="M188.857 41.0815l3.902-4.3005 11.262-8.4924c4.229-3.1892 9.809-4.0633 14.738-2.6695 9.451 2.6727 24.021 6.3608 24.999 5.7859.597-.3508 2.23-2.1269 4.174-4.2404 2.64-2.8704 5.852-6.363 7.816-7.7523l11.671-6.4099c3.384-1.6255 7.299-.7689 9.905 2.1671l.646.7277 4.428 5.2731 7.803 1.7023c.783.1708 1.506.5918 2.085 1.2132l4.214 4.5272c1.842 1.9781 4.697 2.0856 6.651.2505l.59-.555c1.33-1.2491 3.201-1.4426 4.708-.487l5.652 3.5835 9.113 5.376h1.52c3.997 0 7.785 2.0262 10.325 5.5234l.945 1.3h7.354c3.957 0 7.822-1.3558 11.087-3.8895l2.782-2.1585c.65-.5051 1.421-.7754 2.21-.7754h8.062c1.011 0 1.967.5177 2.601 1.4084l6.511 9.1369 6.714-3.7219 12.31 3.7219h13.11l18.238 5.0189 19.971-11.4288h14.708l14.548 2.688 10.383-11.6512c.313-.3512.735-.5482 1.176-.5482h10.024l10.871-8.2709 13.749-3.7218 11.67-9.098 18.066-8.68434c5.403-2.79526 11.73-1.950695 16.412 2.19076l.424.37486 30.166 18.93852 11.67 8.2709 18.699 3.2521 11.148-3.2521.986-1.2025c1.259-1.5367 3.381-1.621 4.733-.1879l3.961 4.1996 7.499.4429 2.269-2.1309c4.614-4.3329 10.419-6.7041 16.412-6.7041l7.034-2.688 14.868-9.7182h11.991l18.705 5.9964 6.394 6.4098 16.147 2.6881 4.317 8.2708h26.858l9.77-4.6192 13.436-15.4626c1.78-2.0487 4.352-2.9424 6.84-2.3766l10.234 5.0897 12.303 6.4098 7.049-9.0979 4.149-3.9603c1.415-1.3514 3.531-1.1421 4.718.4669l4.562 6.1815 3.837 9.0979 9.794 5.1072c1.528.7968 2.979 1.7717 4.328 2.9089l5.702 4.8037 5.874-1.8369c5.446-1.7027 11.282-.3313 15.681 3.6846l1.147 1.0471h5.26c1.446 0 2.888.1181 4.316.3525l12.2-6.7441.441-.3494c4.866-3.8597 11.223-4.3299 16.49-1.2198l17.642 9.7382 11.237 9.7739 13.559 4.5277 10.477 8.9008 10.012.5913c.44.0259.85.2476 1.15.6168l4.02 5.0117 17.89 5.7309 2.57-.3211 14.69.8675 15.2 9.8553 6.81 2.1827 15.85-3.3832 13.1.7732 12.46-2.9907 6.53 4.1128 6.93-8.7405c.67-.8521 1.65-1.3127 2.66-1.2531l8.05.4756c.79.0465 1.54.3619 2.17.9047l2.68 2.3196c3.14 2.7228 6.94 4.3048 10.89 4.5382l7.35.4338 1-1.2427c2.7-3.3426 6.57-5.1426 10.56-4.9069l1.52.0897 9.35-4.8313 5.81-3.2452c1.55-.8654 3.41-.5618 4.68.764l.56.5891c1.87 1.9479 4.73 2.0089 6.66.1421l4.41-4.2725c.61-.5865 1.35-.9642 2.14-1.0886l7.87-1.2397 4.66-5.0049.68-.6886c2.74-2.7783 6.69-3.4028 9.99-1.58l11.36 7.0896c1.9 1.5033 4.95 5.1807 7.45 8.2029 1.85 2.2253 3.4 4.0953 3.98 4.4807.95.6319 15.67-2.1919 25.23-4.3035 4.99-1.1012 10.52.1008 14.59 3.5351l10.86 9.1451 3.7 4.5249c2.43 2.9716 5.42 5.2856 8.75 6.7696l7.72 5.383 4.12 2.879h8.53l6.76-2.879h9.06l26.61-27.8186c2.13-2.2227 5.74-2.0166 7.6.4337l11.56 15.2323 11.12 3.6636 8.27 8.489 9.18 9.725 5.92 7.285 6.42 4.684 6.42 4.163V184H568.257l-208.05-11.077-167.448.534L0 172.906v-66.423l7.27319 3.345 10.72841-3.332 7.947-6.087h4.8422l6.7585-3.9438 3.8399-3.7147 6.811-3.1641 8.7418 7.8152 5.0226-4.6511 4.7463-1.9234 6.3731-6.8332 4.5201-7.2429 8.3443-6.303 8.7418-8.1039 16.6888-15.0178 20.357 15.0178 32.152-5.1785 15.923-9.8393c3.39-1.2858 6.482-3.4202 9.046-6.2448z" fill="#012A35"/><path d="M1251.14 123.755l-3.9-1.964-11.26-3.877c-4.23-1.456-9.81-1.855-14.74-1.218-9.45 1.22-24.02 2.904-25 2.641-.59-.16-2.23-.971-4.17-1.936-2.64-1.31-5.85-2.905-7.82-3.539l-11.67-2.926c-3.38-.742-7.3-.351-9.9.989l-.65.332-4.43 2.408-7.8.777c-.78.078-1.51.27-2.09.554l-4.21 2.066c-1.84.903-4.7.953-6.65.115l-.59-.254c-1.33-.57-3.2-.658-4.71-.222l-5.65 1.636-9.11 2.454h-1.52c-4 0-7.79.925-10.33 2.522l-.94.593h-7.36c-3.95 0-7.82-.619-11.09-1.775l-2.78-.986c-.65-.23-1.42-.354-2.21-.354h-8.06c-1.01 0-1.97.237-2.6.643l-6.51 4.171-6.72-1.699-12.31 1.699h-13.1l-18.24 2.292-19.974-5.218h-14.708l-14.548 1.227-10.383-5.319c-.313-.16-.735-.25-1.176-.25h-10.024l-10.871-3.776-13.749-1.699-11.67-4.153-18.066-3.965c-5.403-1.276-11.73-.89-16.412 1l-.424.171-30.166 8.646-11.67 3.776-18.699 1.485-11.148-1.485-.986-.549c-1.259-.701-3.381-.74-4.733-.086l-3.961 1.918-7.499.202-2.269-.973c-4.614-1.978-10.419-3.061-16.412-3.061l-7.034-1.227-14.868-4.436h-11.991l-18.705 2.737-6.394 2.926-16.147 1.228-4.317 3.775h-26.858l-9.77-2.108-13.436-7.059c-1.78-.936-4.352-1.344-6.84-1.085l-10.234 2.323-12.303 2.926-7.049-4.153-4.149-1.808c-1.415-.617-3.531-.521-4.718.213l-4.562 2.822-3.837 4.154-9.794 2.331c-1.528.364-2.979.809-4.328 1.328l-5.702 2.193-5.874-.839c-5.446-.777-11.282-.151-15.681 1.683l-1.147.478h-5.26c-1.446 0-2.888.053-4.316.161l-12.2-3.079-.441-.16c-4.866-1.762-11.223-1.977-16.49-.557l-17.642 4.446-11.237 4.462-13.559 2.067-10.477 4.063-10.01.27c-.44.012-.853.113-1.149.282l-4.024 2.288-17.886 2.616-2.576-.146-14.688.396-15.199 4.499-6.812.996-15.851-1.544-13.092.353-12.464-1.366-6.535 1.878-6.921-3.99c-.675-.389-1.654-.6-2.662-.572l-8.052.217c-.788.021-1.545.165-2.172.413l-2.678 1.059c-3.145 1.243-6.942 1.965-10.894 2.072l-7.344.198-1.003-.568c-2.697-1.526-6.573-2.347-10.564-2.24l-1.519.041-9.347-2.205-5.809-1.482c-1.549-.395-3.409-.256-4.679.349l-.565.269c-1.866.889-4.723.917-6.653.065l-4.416-1.951c-.607-.268-1.349-.44-2.138-.497l-7.871-.566-4.663-2.285-.679-.314c-2.738-1.268-6.687-1.554-9.992-.721l-11.36 3.236c-1.898.687-4.945 2.365-7.449 3.745-1.844 1.016-3.394 1.87-3.974 2.046-.95.288-15.67-1.001-25.231-1.965-4.987-.503-10.518.046-14.595 1.614l-10.857 4.175-3.699 2.065c-2.43 1.357-5.42 2.414-8.747 3.091l-7.724 2.457-4.117 1.315h-8.531l-6.761-1.315h-9.0609l-28.2377-13.475c-1.5152-.723-3.2921-.638-4.7307.228l-12.7999 7.699-11.1197 1.673-8.2672 3.875-9.1857 4.44-5.921 3.326-6.41859 2.138L0 166.676V189h871.743l208.047-5.057 167.45.244 192.76-.252v-30.323l-7.27 1.527-10.73-1.521-7.95-2.779h-4.84l-6.76-1.801-3.84-1.695-6.81-1.445-8.74 3.568-5.02-2.123-4.75-.878-6.37-3.12-4.52-3.306-8.35-2.878-8.74-3.7-16.69-6.856-20.36 6.856-32.15-2.364-15.92-4.492c-3.39-.586-6.48-1.561-9.05-2.85z" fill="#001E26"/></svg>